<?xml version="1.0" encoding="UTF-8"?> 
<!DOCTYPE svg PUBLIC "-//W3C//DTD SVG 1.0//EN" "http://www.w3.org/TR/SVG/DTD/svg10.dtd">
<svg xmlns="http://www.w3.org/2000/svg" xmlns:xlink="http://www.w3.org/1999/xlink" xmlns:gmsvgsym="http://www.intergraph.com/GeoMedia/svgsym">
<symbol id="DrzewoLisciaste" viewBox="-0.00146700628101825710 -0.00149847927968949080 0.00292692147195339200 0.00285709102172404530" style="stroke-linejoin:round"><!-- Creator: SVG Document for Symbols-->
<g id ="Arc2d_0" style = " stroke-width: 0.0001800000;stroke: #008000; fill: none; " >
<path d="M -0.0013303761 0.0002015295 A0.0007500863 0.0007500863 0 0 1 -0.0009518675 -0.0009424369 " />
</g>
<g id ="Arc2d_1" style = " stroke-width: 0.0001800000;stroke: #008000; fill: none; " >
<path d="M -0.0002235026 0.0013253366 A0.0007500863 0.0007500863 0 0 1 -0.0011945138 0.0006118485 " />
</g>
<g id ="Arc2d_2" style = " stroke-width: 0.0001800000;stroke: #008000; fill: none; " >
<path d="M 0.0011873442 0.0006199129 A0.0007500863 0.0007500863 0 0 1 0.0002087177 0.0013229195 " />
</g>
<g id ="Arc2d_3" style = " stroke-width: 0.0001800000;stroke: #008000; fill: none; " >
<path d="M 0.0009524220 -0.0009398700 A0.0007500863 0.0007500863 0 0 1 0.0013186087 0.0002081001 " />
</g>
<g id ="Arc2d_4" style = " stroke-width: 0.0001800000;stroke: #008000; fill: none; " >
<path d="M -0.0006036140 -0.0011984447 A0.0007500863 0.0007500863 0 0 1 0.0006013283 -0.0011919667 " />
</g>
<g id = "ComplexString2d_5" style = " fill-rule: evenodd; stroke-width: 0.0000000000;stroke: #008000; fill: #008000; " >
<path d="M 0.0001000000 -0.0000000000 L 0.0000993776 -0.0000111397 L 0.0000985592 -0.0000169138 L 0.0000973684 -0.0000227901 L 0.0000957818 -0.0000287376 L 0.0000937788 -0.0000347208 L 0.0000913428 -0.0000407001 L 0.0000884615 -0.0000466321 L 0.0000851285 -0.0000524703 L 0.0000813433 -0.0000581659 L 0.0000771122 -0.0000636687 L 0.0000724490 -0.0000689286 L 0.0000673745 -0.0000738964 L 0.0000619171 -0.0000785256 L 0.0000561118 -0.0000827736 L 0.0000500000 -0.0000866025 L 0.0000436281 -0.0000899811 L 0.0000370466 -0.0000928846 L 0.0000303089 -0.0000952962 L 0.0000234694 -0.0000972069 L 0.0000165826 -0.0000986155 L 0.0000097015 -0.0000995283 L 0.0000028764 -0.0000999586 L -0.0000038462 -0.0000999260 L -0.0000104240 -0.0000994552 L -0.0000168203 -0.0000985752 L -0.0000230034 -0.0000973183 L -0.0000289474 -0.0000957186 L -0.0000346318 -0.0000938117 L -0.0000400415 -0.0000916334 L -0.0000451662 -0.0000892189 L -0.0000500000 -0.0000866025 L -0.0000593361 -0.0000804936 L -0.0000639274 -0.0000768979 L -0.0000684211 -0.0000729285 L -0.0000727784 -0.0000685806 L -0.0000769585 -0.0000638544 L -0.0000809187 -0.0000587551 L -0.0000846154 -0.0000532939 L -0.0000880049 -0.0000474883 L -0.0000910448 -0.0000413624 L -0.0000936948 -0.0000349468 L -0.0000959184 -0.0000282784 L -0.0000976834 -0.0000213999 L -0.0000989637 -0.0000143590 L -0.0000997399 -0.0000072075 L -0.0001000000 -0.0000000000 L -0.0000997399 0.0000072075 L -0.0000989637 0.0000143590 L -0.0000976834 0.0000213999 L -0.0000959184 0.0000282784 L -0.0000936948 0.0000349468 L -0.0000910448 0.0000413624 L -0.0000880049 0.0000474883 L -0.0000846154 0.0000532939 L -0.0000809187 0.0000587551 L -0.0000769585 0.0000638544 L -0.0000727784 0.0000685806 L -0.0000684211 0.0000729285 L -0.0000639274 0.0000768979 L -0.0000593361 0.0000804936 L -0.0000546828 0.0000837245 L -0.0000500000 0.0000866025 L -0.0000400415 0.0000916334 L -0.0000346318 0.0000938117 L -0.0000289474 0.0000957186 L -0.0000230034 0.0000973183 L -0.0000168203 0.0000985752 L -0.0000104240 0.0000994552 L -0.0000038462 0.0000999260 L 0.0000028764 0.0000999586 L 0.0000097015 0.0000995283 L 0.0000165826 0.0000986155 L 0.0000234694 0.0000972069 L 0.0000303089 0.0000952962 L 0.0000370466 0.0000928846 L 0.0000436281 0.0000899811 L 0.0000500000 0.0000866025 L 0.0000561118 0.0000827736 L 0.0000619171 0.0000785256 L 0.0000673745 0.0000738964 L 0.0000724490 0.0000689286 L 0.0000771122 0.0000636687 L 0.0000813433 0.0000581659 L 0.0000851285 0.0000524703 L 0.0000884615 0.0000466321 L 0.0000913428 0.0000407001 L 0.0000937788 0.0000347208 L 0.0000957818 0.0000287376 L 0.0000973684 0.0000227901 L 0.0000985592 0.0000169138 L 0.0000993776 0.0000111397 L 0.0000998489 0.0000054944 L 0.0001000000 0.0000000000 Z"/>
</g>
<polyline points= " 0.0001000000 -0.0000000000 0.0000993776 -0.0000111397 0.0000985592 -0.0000169138 0.0000973684 -0.0000227901 0.0000957818 -0.0000287376 0.0000937788 -0.0000347208 0.0000913428 -0.0000407001 0.0000884615 -0.0000466321 0.0000851285 -0.0000524703 0.0000813433 -0.0000581659 0.0000771122 -0.0000636687 0.0000724490 -0.0000689286 0.0000673745 -0.0000738964 0.0000619171 -0.0000785256 0.0000561118 -0.0000827736 0.0000500000 -0.0000866025 0.0000436281 -0.0000899811 0.0000370466 -0.0000928846 0.0000303089 -0.0000952962 0.0000234694 -0.0000972069 0.0000165826 -0.0000986155 0.0000097015 -0.0000995283 0.0000028764 -0.0000999586 -0.0000038462 -0.0000999260 -0.0000104240 -0.0000994552 -0.0000168203 -0.0000985752 -0.0000230034 -0.0000973183 -0.0000289474 -0.0000957186 -0.0000346318 -0.0000938117 -0.0000400415 -0.0000916334 -0.0000451662 -0.0000892189 -0.0000500000 -0.0000866025 -0.0000593361 -0.0000804936 -0.0000639274 -0.0000768979 -0.0000684211 -0.0000729285 -0.0000727784 -0.0000685806 -0.0000769585 -0.0000638544 -0.0000809187 -0.0000587551 -0.0000846154 -0.0000532939 -0.0000880049 -0.0000474883 -0.0000910448 -0.0000413624 -0.0000936948 -0.0000349468 -0.0000959184 -0.0000282784 -0.0000976834 -0.0000213999 -0.0000989637 -0.0000143590 -0.0000997399 -0.0000072075 -0.0001000000 -0.0000000000 -0.0000997399 0.0000072075 -0.0000989637 0.0000143590 -0.0000976834 0.0000213999 -0.0000959184 0.0000282784 -0.0000936948 0.0000349468 -0.0000910448 0.0000413624 -0.0000880049 0.0000474883 -0.0000846154 0.0000532939 -0.0000809187 0.0000587551 -0.0000769585 0.0000638544 -0.0000727784 0.0000685806 -0.0000684211 0.0000729285 -0.0000639274 0.0000768979 -0.0000593361 0.0000804936 -0.0000546828 0.0000837245 -0.0000500000 0.0000866025 -0.0000400415 0.0000916334 -0.0000346318 0.0000938117 -0.0000289474 0.0000957186 -0.0000230034 0.0000973183 -0.0000168203 0.0000985752 -0.0000104240 0.0000994552 -0.0000038462 0.0000999260 0.0000028764 0.0000999586 0.0000097015 0.0000995283 0.0000165826 0.0000986155 0.0000234694 0.0000972069 0.0000303089 0.0000952962 0.0000370466 0.0000928846 0.0000436281 0.0000899811 0.0000500000 0.0000866025 0.0000561118 0.0000827736 0.0000619171 0.0000785256 0.0000673745 0.0000738964 0.0000724490 0.0000689286 0.0000771122 0.0000636687 0.0000813433 0.0000581659 0.0000851285 0.0000524703 0.0000884615 0.0000466321 0.0000913428 0.0000407001 0.0000937788 0.0000347208 0.0000957818 0.0000287376 0.0000973684 0.0000227901 0.0000985592 0.0000169138 0.0000993776 0.0000111397 0.0000998489 0.0000054944 0.0001000000 0.0000000000 "  style = " stroke-width: 0.0000010000;stroke: #008000; fill: none; " />
</symbol>
</svg>