<?xml version="1.0" encoding="UTF-8"?> 
<!DOCTYPE svg PUBLIC "-//W3C//DTD SVG 1.0//EN" "http://www.w3.org/TR/SVG/DTD/svg10.dtd">
<svg xmlns="http://www.w3.org/2000/svg" xmlns:xlink="http://www.w3.org/1999/xlink" xmlns:gmsvgsym="http://www.intergraph.com/GeoMedia/svgsym">
<symbol id="SUUS14" viewBox="-0.00150000012945383790 -0.00250000017695128920 0.00300000025890767570 0.00400000030640512700" style="stroke-linejoin:round"><!-- Creator: SVG Document for Symbols-->
<g id = "ComplexString2d_0" style = " fill-rule: evenodd; stroke-width: 0.0000000000;stroke: #ffffff; fill: #ffffff; " >
<path d="M 0.0015000000 -0.0000000000 L 0.0014977341 -0.0000824163 L 0.0014906639 -0.0001670962 L 0.0014783885 -0.0002537075 L 0.0014605263 -0.0003418521 L 0.0014367267 -0.0004310644 L 0.0014066820 -0.0005208125 L 0.0013701413 -0.0006105020 L 0.0013269231 -0.0006994821 L 0.0012769278 -0.0007870549 L 0.0012493829 -0.0008300858 L 0.0012201493 -0.0008724883 L 0.0011892421 -0.0009141681 L 0.0011566835 -0.0009550305 L 0.0011225024 -0.0009949816 L 0.0010867347 -0.0010339283 L 0.0010494233 -0.0010717793 L 0.0010106178 -0.0011084456 L 0.0009703746 -0.0011438414 L 0.0009287565 -0.0011778843 L 0.0008858325 -0.0012104961 L 0.0008416775 -0.0012416034 L 0.0007963716 -0.0012711382 L 0.0007500000 -0.0012990381 L 0.0007026521 -0.0013252471 L 0.0006544213 -0.0013497158 L 0.0006054041 -0.0013724015 L 0.0005556995 -0.0013932688 L 0.0005054085 -0.0014122897 L 0.0004546332 -0.0014294435 L 0.0004034764 -0.0014447168 L 0.0003520408 -0.0014581040 L 0.0003004282 -0.0014696064 L 0.0002487390 -0.0014792325 L 0.0001970717 -0.0014869979 L 0.0001455224 -0.0014929244 L 0.0000941839 -0.0014970402 L 0.0000431457 -0.0014993794 L -0.0000075068 -0.0014999812 L -0.0000576923 -0.0014988901 L -0.0001563604 -0.0014918282 L -0.0002523041 -0.0014786286 L -0.0003450506 -0.0014597740 L -0.0004342105 -0.0014357790 L -0.0005194771 -0.0014071757 L -0.0006006224 -0.0013745009 L -0.0006774924 -0.0013382840 L -0.0007500000 -0.0012990381 L -0.0008202417 -0.0012558677 L -0.0008900415 -0.0012074047 L -0.0009589114 -0.0011534682 L -0.0010263158 -0.0010939268 L -0.0010916760 -0.0010287096 L -0.0011543779 -0.0009578161 L -0.0012137809 -0.0008813262 L -0.0012692308 -0.0007994081 L -0.0013200734 -0.0007123244 L -0.0013435668 -0.0006669545 L -0.0013656716 -0.0006204361 L -0.0013863138 -0.0005728298 L -0.0014054224 -0.0005242020 L -0.0014229305 -0.0004746248 L -0.0014387755 -0.0004241757 L -0.0014528997 -0.0003729376 L -0.0014652510 -0.0003209978 L -0.0014757830 -0.0002684483 L -0.0014844560 -0.0002153846 L -0.0014912366 -0.0001619054 L -0.0014960988 -0.0001081124 L -0.0014990238 -0.0000541090 L -0.0015000000 -0.0000000000 L -0.0014990238 0.0000541090 L -0.0014960988 0.0001081124 L -0.0014912366 0.0001619054 L -0.0014844560 0.0002153846 L -0.0014757830 0.0002684483 L -0.0014652510 0.0003209978 L -0.0014528997 0.0003729376 L -0.0014387755 0.0004241757 L -0.0014229305 0.0004746248 L -0.0014054224 0.0005242020 L -0.0013863138 0.0005728298 L -0.0013656716 0.0006204361 L -0.0013435668 0.0006669545 L -0.0013200734 0.0007123244 L -0.0012952684 0.0007564917 L -0.0012692308 0.0007994081 L -0.0012137809 0.0008813262 L -0.0011543779 0.0009578161 L -0.0010916760 0.0010287096 L -0.0010263158 0.0010939268 L -0.0009589114 0.0011534682 L -0.0008900415 0.0012074047 L -0.0008202417 0.0012558677 L -0.0007500000 0.0012990381 L -0.0006774924 0.0013382840 L -0.0006006224 0.0013745009 L -0.0005194771 0.0014071757 L -0.0004342105 0.0014357790 L -0.0003450506 0.0014597740 L -0.0002523041 0.0014786286 L -0.0001563604 0.0014918282 L -0.0000576923 0.0014988901 L 0.0000431457 0.0014993794 L 0.0000941839 0.0014970402 L 0.0001455224 0.0014929244 L 0.0001970717 0.0014869979 L 0.0002487390 0.0014792325 L 0.0003004282 0.0014696064 L 0.0003520408 0.0014581040 L 0.0004034764 0.0014447168 L 0.0004546332 0.0014294435 L 0.0005054085 0.0014122897 L 0.0005556995 0.0013932688 L 0.0006054041 0.0013724015 L 0.0006544213 0.0013497158 L 0.0007026521 0.0013252471 L 0.0007500000 0.0012990381 L 0.0007963716 0.0012711382 L 0.0008416775 0.0012416034 L 0.0008858325 0.0012104961 L 0.0009287565 0.0011778843 L 0.0009703746 0.0011438414 L 0.0010106178 0.0011084456 L 0.0010494233 0.0010717793 L 0.0010867347 0.0010339283 L 0.0011225024 0.0009949816 L 0.0011566835 0.0009550305 L 0.0011892421 0.0009141681 L 0.0012201493 0.0008724883 L 0.0012493829 0.0008300858 L 0.0012769278 0.0007870549 L 0.0013027753 0.0007434895 L 0.0013269231 0.0006994821 L 0.0013701413 0.0006105020 L 0.0014066820 0.0005208125 L 0.0014367267 0.0004310644 L 0.0014605263 0.0003418521 L 0.0014783885 0.0002537075 L 0.0014906639 0.0001670962 L 0.0014977341 0.0000824163 L 0.0015000000 0.0000000000 Z"/>
</g>
<polyline points= " 0.0015000000 -0.0000000000 0.0014977341 -0.0000824163 0.0014906639 -0.0001670962 0.0014783885 -0.0002537075 0.0014605263 -0.0003418521 0.0014367267 -0.0004310644 0.0014066820 -0.0005208125 0.0013701413 -0.0006105020 0.0013269231 -0.0006994821 0.0012769278 -0.0007870549 0.0012493829 -0.0008300858 0.0012201493 -0.0008724883 0.0011892421 -0.0009141681 0.0011566835 -0.0009550305 0.0011225024 -0.0009949816 0.0010867347 -0.0010339283 0.0010494233 -0.0010717793 0.0010106178 -0.0011084456 0.0009703746 -0.0011438414 0.0009287565 -0.0011778843 0.0008858325 -0.0012104961 0.0008416775 -0.0012416034 0.0007963716 -0.0012711382 0.0007500000 -0.0012990381 0.0007026521 -0.0013252471 0.0006544213 -0.0013497158 0.0006054041 -0.0013724015 0.0005556995 -0.0013932688 0.0005054085 -0.0014122897 0.0004546332 -0.0014294435 0.0004034764 -0.0014447168 0.0003520408 -0.0014581040 0.0003004282 -0.0014696064 0.0002487390 -0.0014792325 0.0001970717 -0.0014869979 0.0001455224 -0.0014929244 0.0000941839 -0.0014970402 0.0000431457 -0.0014993794 -0.0000075068 -0.0014999812 -0.0000576923 -0.0014988901 -0.0001563604 -0.0014918282 -0.0002523041 -0.0014786286 -0.0003450506 -0.0014597740 -0.0004342105 -0.0014357790 -0.0005194771 -0.0014071757 -0.0006006224 -0.0013745009 -0.0006774924 -0.0013382840 -0.0007500000 -0.0012990381 -0.0008202417 -0.0012558677 -0.0008900415 -0.0012074047 -0.0009589114 -0.0011534682 -0.0010263158 -0.0010939268 -0.0010916760 -0.0010287096 -0.0011543779 -0.0009578161 -0.0012137809 -0.0008813262 -0.0012692308 -0.0007994081 -0.0013200734 -0.0007123244 -0.0013435668 -0.0006669545 -0.0013656716 -0.0006204361 -0.0013863138 -0.0005728298 -0.0014054224 -0.0005242020 -0.0014229305 -0.0004746248 -0.0014387755 -0.0004241757 -0.0014528997 -0.0003729376 -0.0014652510 -0.0003209978 -0.0014757830 -0.0002684483 -0.0014844560 -0.0002153846 -0.0014912366 -0.0001619054 -0.0014960988 -0.0001081124 -0.0014990238 -0.0000541090 -0.0015000000 -0.0000000000 -0.0014990238 0.0000541090 -0.0014960988 0.0001081124 -0.0014912366 0.0001619054 -0.0014844560 0.0002153846 -0.0014757830 0.0002684483 -0.0014652510 0.0003209978 -0.0014528997 0.0003729376 -0.0014387755 0.0004241757 -0.0014229305 0.0004746248 -0.0014054224 0.0005242020 -0.0013863138 0.0005728298 -0.0013656716 0.0006204361 -0.0013435668 0.0006669545 -0.0013200734 0.0007123244 -0.0012952684 0.0007564917 -0.0012692308 0.0007994081 -0.0012137809 0.0008813262 -0.0011543779 0.0009578161 -0.0010916760 0.0010287096 -0.0010263158 0.0010939268 -0.0009589114 0.0011534682 -0.0008900415 0.0012074047 -0.0008202417 0.0012558677 -0.0007500000 0.0012990381 -0.0006774924 0.0013382840 -0.0006006224 0.0013745009 -0.0005194771 0.0014071757 -0.0004342105 0.0014357790 -0.0003450506 0.0014597740 -0.0002523041 0.0014786286 -0.0001563604 0.0014918282 -0.0000576923 0.0014988901 0.0000431457 0.0014993794 0.0000941839 0.0014970402 0.0001455224 0.0014929244 0.0001970717 0.0014869979 0.0002487390 0.0014792325 0.0003004282 0.0014696064 0.0003520408 0.0014581040 0.0004034764 0.0014447168 0.0004546332 0.0014294435 0.0005054085 0.0014122897 0.0005556995 0.0013932688 0.0006054041 0.0013724015 0.0006544213 0.0013497158 0.0007026521 0.0013252471 0.0007500000 0.0012990381 0.0007963716 0.0012711382 0.0008416775 0.0012416034 0.0008858325 0.0012104961 0.0009287565 0.0011778843 0.0009703746 0.0011438414 0.0010106178 0.0011084456 0.0010494233 0.0010717793 0.0010867347 0.0010339283 0.0011225024 0.0009949816 0.0011566835 0.0009550305 0.0011892421 0.0009141681 0.0012201493 0.0008724883 0.0012493829 0.0008300858 0.0012769278 0.0007870549 0.0013027753 0.0007434895 0.0013269231 0.0006994821 0.0013701413 0.0006105020 0.0014066820 0.0005208125 0.0014367267 0.0004310644 0.0014605263 0.0003418521 0.0014783885 0.0002537075 0.0014906639 0.0001670962 0.0014977341 0.0000824163 0.0015000000 0.0000000000 "  style = " stroke-width: 0.0001800000;stroke: #0a0909; fill: none; " />
<polyline points= " 0.0005000000 -0.0000000000 0.0004968880 -0.0000556987 0.0004927962 -0.0000845692 0.0004868421 -0.0001139507 0.0004789089 -0.0001436881 0.0004688940 -0.0001736042 0.0004567138 -0.0002035007 0.0004423077 -0.0002331607 0.0004256426 -0.0002623516 0.0004067164 -0.0002908294 0.0003855612 -0.0003183435 0.0003622449 -0.0003446428 0.0003368726 -0.0003694819 0.0003095855 -0.0003926281 0.0002805592 -0.0004138678 0.0002500000 -0.0004330127 0.0002181404 -0.0004499053 0.0001852332 -0.0004644229 0.0001515444 -0.0004764812 0.0001173469 -0.0004860347 0.0000829130 -0.0004930775 0.0000485075 -0.0004976415 0.0000143819 -0.0004997931 -0.0000192308 -0.0004996300 -0.0000521201 -0.0004972761 -0.0000841014 -0.0004928762 -0.0001150169 -0.0004865913 -0.0001447368 -0.0004785930 -0.0001731590 -0.0004690586 -0.0002002075 -0.0004581670 -0.0002258308 -0.0004460947 -0.0002500000 -0.0004330127 -0.0002966805 -0.0004024682 -0.0003196371 -0.0003844894 -0.0003421053 -0.0003646423 -0.0003638920 -0.0003429032 -0.0003847926 -0.0003192720 -0.0004045936 -0.0002937754 -0.0004230769 -0.0002664694 -0.0004400245 -0.0002374415 -0.0004552239 -0.0002068120 -0.0004684741 -0.0001747340 -0.0004795918 -0.0001413919 -0.0004884170 -0.0001069993 -0.0004948187 -0.0000717949 -0.0004986996 -0.0000360375 -0.0005000000 -0.0000000000 -0.0004986996 0.0000360375 -0.0004948187 0.0000717949 -0.0004884170 0.0001069993 -0.0004795918 0.0001413919 -0.0004684741 0.0001747340 -0.0004552239 0.0002068120 -0.0004400245 0.0002374415 -0.0004230769 0.0002664694 -0.0004045936 0.0002937754 -0.0003847926 0.0003192720 -0.0003638920 0.0003429032 -0.0003421053 0.0003646423 -0.0003196371 0.0003844894 -0.0002966805 0.0004024682 -0.0002734139 0.0004186226 -0.0002500000 0.0004330127 -0.0002002075 0.0004581670 -0.0001731590 0.0004690586 -0.0001447368 0.0004785930 -0.0001150169 0.0004865913 -0.0000841014 0.0004928762 -0.0000521201 0.0004972761 -0.0000192308 0.0004996300 0.0000143819 0.0004997931 0.0000485075 0.0004976415 0.0000829130 0.0004930775 0.0001173469 0.0004860347 0.0001515444 0.0004764812 0.0001852332 0.0004644229 0.0002181404 0.0004499053 0.0002500000 0.0004330127 0.0002805592 0.0004138678 0.0003095855 0.0003926281 0.0003368726 0.0003694819 0.0003622449 0.0003446428 0.0003855612 0.0003183435 0.0004067164 0.0002908294 0.0004256426 0.0002623516 0.0004423077 0.0002331607 0.0004567138 0.0002035007 0.0004688940 0.0001736042 0.0004789089 0.0001436881 0.0004868421 0.0001139507 0.0004927962 0.0000845692 0.0004968880 0.0000556987 0.0004992447 0.0000274721 0.0005000000 0.0000000000 "  style = " stroke-width: 0.0001800000;stroke: #0a0909; fill: none; " />
<polyline points= " 0.0000000000 -0.0015000000 0.0000000000 -0.0020000000"  style = "  stroke-width: 0.0001800000; stroke-linecap: round;stroke: #0a0909; fill: none; " />
<g id ="Arc2d_1" style = " stroke-width: 0.0001800000;stroke: #0a0909; fill: none; " >
<path d="M -0.0000000000 -0.0020000000 A0.0005000000 0.0005000000 0 0 1 0.0010000000 -0.0020000000 " />
</g>
<g id ="Arc2d_2" style = " stroke-width: 0.0001800000;stroke: #0a0909; fill: none; " >
<path d="M -0.0010000000 -0.0020000000 A0.0005000000 0.0005000000 0 0 1 -0.0000000000 -0.0020000000 " />
</g>
</symbol>
</svg>