<?xml version="1.0" encoding="UTF-8"?> 
<!DOCTYPE svg PUBLIC "-//W3C//DTD SVG 1.0//EN" "http://www.w3.org/TR/SVG/DTD/svg10.dtd">
<svg xmlns="http://www.w3.org/2000/svg" xmlns:xlink="http://www.w3.org/1999/xlink" xmlns:gmsvgsym="http://www.intergraph.com/GeoMedia/svgsym">
<symbol id="SUUS28" viewBox="-0.00100000016391277310 -0.00200000032782554630 0.00200000032782554630 0.00300000049173831940" style="stroke-linejoin:round"><!-- Creator: SVG Document for Symbols-->
<g id = "ComplexString2d_0" style = " fill-rule: evenodd; stroke-width: 0.0000000000;stroke: #ffffff; fill: #ffffff; " >
<path d="M 0.0010000000 0.0000000000 L 0.0009984894 -0.0000549442 L 0.0009937759 -0.0001113975 L 0.0009855923 -0.0001691384 L 0.0009736842 -0.0002279014 L 0.0009578178 -0.0002873763 L 0.0009377880 -0.0003472083 L 0.0009134276 -0.0004070013 L 0.0008846154 -0.0004663214 L 0.0008512852 -0.0005247033 L 0.0008134328 -0.0005816589 L 0.0007711223 -0.0006366870 L 0.0007244898 -0.0006892855 L 0.0006737452 -0.0007389638 L 0.0006191710 -0.0007852562 L 0.0005611183 -0.0008277356 L 0.0005000000 -0.0008660254 L 0.0004362809 -0.0008998105 L 0.0003704663 -0.0009288459 L 0.0003030888 -0.0009529623 L 0.0002346939 -0.0009720693 L 0.0001658260 -0.0009861550 L 0.0000970149 -0.0009952829 L 0.0000287638 -0.0009995862 L -0.0000384615 -0.0009992601 L -0.0001042403 -0.0009945521 L -0.0001682028 -0.0009857524 L -0.0002300337 -0.0009731827 L -0.0002894737 -0.0009571860 L -0.0003463180 -0.0009381172 L -0.0004004149 -0.0009163339 L -0.0004516616 -0.0008921893 L -0.0005000000 -0.0008660254 L -0.0005468278 -0.0008372451 L -0.0005933610 -0.0008049365 L -0.0006392743 -0.0007689788 L -0.0006842105 -0.0007292846 L -0.0007277840 -0.0006858064 L -0.0007695853 -0.0006385441 L -0.0008091873 -0.0005875508 L -0.0008461538 -0.0005329387 L -0.0008800490 -0.0004748830 L -0.0009104478 -0.0004136241 L -0.0009369483 -0.0003494680 L -0.0009591837 -0.0002827838 L -0.0009768340 -0.0002139986 L -0.0009896373 -0.0001435897 L -0.0009973992 -0.0000720749 L -0.0010000000 0.0000000000 L -0.0009973992 0.0000720749 L -0.0009896373 0.0001435897 L -0.0009768340 0.0002139986 L -0.0009591837 0.0002827838 L -0.0009369483 0.0003494680 L -0.0009104478 0.0004136241 L -0.0008800490 0.0004748830 L -0.0008461538 0.0005329387 L -0.0008091873 0.0005875508 L -0.0007695853 0.0006385441 L -0.0007277840 0.0006858064 L -0.0006842105 0.0007292846 L -0.0006392743 0.0007689788 L -0.0005933610 0.0008049365 L -0.0005468278 0.0008372451 L -0.0005000000 0.0008660254 L -0.0004516616 0.0008921893 L -0.0004004149 0.0009163339 L -0.0003463180 0.0009381172 L -0.0002894737 0.0009571860 L -0.0002300337 0.0009731827 L -0.0001682028 0.0009857524 L -0.0001042403 0.0009945521 L -0.0000384615 0.0009992601 L 0.0000287638 0.0009995862 L 0.0000970149 0.0009952829 L 0.0001658260 0.0009861550 L 0.0002346939 0.0009720693 L 0.0003030888 0.0009529623 L 0.0003704663 0.0009288459 L 0.0004362809 0.0008998105 L 0.0005000000 0.0008660254 L 0.0005611183 0.0008277356 L 0.0006191710 0.0007852562 L 0.0006737452 0.0007389638 L 0.0007244898 0.0006892855 L 0.0007711223 0.0006366870 L 0.0008134328 0.0005816589 L 0.0008512852 0.0005247033 L 0.0008846154 0.0004663214 L 0.0009134276 0.0004070013 L 0.0009377880 0.0003472083 L 0.0009578178 0.0002873763 L 0.0009736842 0.0002279014 L 0.0009855923 0.0001691384 L 0.0009937759 0.0001113975 L 0.0009984894 0.0000549442 L 0.0010000000 0.0000000000 Z"/>
</g>
<polyline points= " 0.0010000000 0.0000000000 0.0009984894 -0.0000549442 0.0009937759 -0.0001113975 0.0009855923 -0.0001691384 0.0009736842 -0.0002279014 0.0009578178 -0.0002873763 0.0009377880 -0.0003472083 0.0009134276 -0.0004070013 0.0008846154 -0.0004663214 0.0008512852 -0.0005247033 0.0008134328 -0.0005816589 0.0007711223 -0.0006366870 0.0007244898 -0.0006892855 0.0006737452 -0.0007389638 0.0006191710 -0.0007852562 0.0005611183 -0.0008277356 0.0005000000 -0.0008660254 0.0004362809 -0.0008998105 0.0003704663 -0.0009288459 0.0003030888 -0.0009529623 0.0002346939 -0.0009720693 0.0001658260 -0.0009861550 0.0000970149 -0.0009952829 0.0000287638 -0.0009995862 -0.0000384615 -0.0009992601 -0.0001042403 -0.0009945521 -0.0001682028 -0.0009857524 -0.0002300337 -0.0009731827 -0.0002894737 -0.0009571860 -0.0003463180 -0.0009381172 -0.0004004149 -0.0009163339 -0.0004516616 -0.0008921893 -0.0005000000 -0.0008660254 -0.0005468278 -0.0008372451 -0.0005933610 -0.0008049365 -0.0006392743 -0.0007689788 -0.0006842105 -0.0007292846 -0.0007277840 -0.0006858064 -0.0007695853 -0.0006385441 -0.0008091873 -0.0005875508 -0.0008461538 -0.0005329387 -0.0008800490 -0.0004748830 -0.0009104478 -0.0004136241 -0.0009369483 -0.0003494680 -0.0009591837 -0.0002827838 -0.0009768340 -0.0002139986 -0.0009896373 -0.0001435897 -0.0009973992 -0.0000720749 -0.0010000000 0.0000000000 -0.0009973992 0.0000720749 -0.0009896373 0.0001435897 -0.0009768340 0.0002139986 -0.0009591837 0.0002827838 -0.0009369483 0.0003494680 -0.0009104478 0.0004136241 -0.0008800490 0.0004748830 -0.0008461538 0.0005329387 -0.0008091873 0.0005875508 -0.0007695853 0.0006385441 -0.0007277840 0.0006858064 -0.0006842105 0.0007292846 -0.0006392743 0.0007689788 -0.0005933610 0.0008049365 -0.0005468278 0.0008372451 -0.0005000000 0.0008660254 -0.0004516616 0.0008921893 -0.0004004149 0.0009163339 -0.0003463180 0.0009381172 -0.0002894737 0.0009571860 -0.0002300337 0.0009731827 -0.0001682028 0.0009857524 -0.0001042403 0.0009945521 -0.0000384615 0.0009992601 0.0000287638 0.0009995862 0.0000970149 0.0009952829 0.0001658260 0.0009861550 0.0002346939 0.0009720693 0.0003030888 0.0009529623 0.0003704663 0.0009288459 0.0004362809 0.0008998105 0.0005000000 0.0008660254 0.0005611183 0.0008277356 0.0006191710 0.0007852562 0.0006737452 0.0007389638 0.0007244898 0.0006892855 0.0007711223 0.0006366870 0.0008134328 0.0005816589 0.0008512852 0.0005247033 0.0008846154 0.0004663214 0.0009134276 0.0004070013 0.0009377880 0.0003472083 0.0009578178 0.0002873763 0.0009736842 0.0002279014 0.0009855923 0.0001691384 0.0009937759 0.0001113975 0.0009984894 0.0000549442 0.0010000000 0.0000000000 "  style = " stroke-width: 0.0001800000;stroke: #0a0909; fill: none; " />
<polyline points= " 0.0000000000 -0.0020000000 0.0000000000 -0.0010000000"  style = "  stroke-width: 0.0001800000; stroke-linecap: round;stroke: #0a0909; fill: none; " />
<path id ="LineString2d_1"  style = " stroke-width: 0.0001800000;stroke: #0a0909; fill: none; "  d="M -0.0010000000 -0.0020000000 L 0.0000000000 -0.0020000000 L 0.0007000000 -0.0013000000"/>

</symbol>
</svg>