<svg xmlns="http://www.w3.org/2000/svg">
<symbol id="DrzewoLisciastePomnikPrzyrody" viewBox="-0.00195105723105371000 -0.00200000032782554630 0.00390211306512355800 0.00380901677999645470" style="stroke-linejoin:round">
<polyline points= " 0.0004000000 -0.0000000000 0.0003975104 -0.0000445590 0.0003894737 -0.0000911606 0.0003751152 -0.0001388833 0.0003538462 -0.0001865285 0.0003405141 -0.0002098813 0.0003253731 -0.0002326635 0.0003084489 -0.0002546748 0.0002897959 -0.0002757142 0.0002694981 -0.0002955855 0.0002476684 -0.0003141025 0.0002244473 -0.0003310942 0.0002000000 -0.0003464102 0.0001745124 -0.0003599242 0.0001481865 -0.0003715384 0.0001212355 -0.0003811849 0.0000938776 -0.0003888277 0.0000663304 -0.0003944620 0.0000388060 -0.0003981132 0.0000115055 -0.0003998345 -0.0000153846 -0.0003997040 -0.0000672811 -0.0003943010 -0.0001157895 -0.0003828744 -0.0001601660 -0.0003665336 -0.0002000000 -0.0003464102 -0.0002373444 -0.0003219746 -0.0002736842 -0.0002917138 -0.0003078341 -0.0002554176 -0.0003384615 -0.0002131755 -0.0003520196 -0.0001899532 -0.0003641791 -0.0001654496 -0.0003747793 -0.0001397872 -0.0003836735 -0.0001131135 -0.0003907336 -0.0000855994 -0.0003958549 -0.0000574359 -0.0003989597 -0.0000288300 -0.0004000000 -0.0000000000 -0.0003989597 0.0000288300 -0.0003958549 0.0000574359 -0.0003907336 0.0000855994 -0.0003836735 0.0001131135 -0.0003747793 0.0001397872 -0.0003641791 0.0001654496 -0.0003520196 0.0001899532 -0.0003384615 0.0002131755 -0.0003078341 0.0002554176 -0.0002736842 0.0002917138 -0.0002373444 0.0003219746 -0.0002000000 0.0003464102 -0.0001601660 0.0003665336 -0.0001157895 0.0003828744 -0.0000672811 0.0003943010 -0.0000153846 0.0003997040 0.0000115055 0.0003998345 0.0000388060 0.0003981132 0.0000663304 0.0003944620 0.0000938776 0.0003888277 0.0001212355 0.0003811849 0.0001481865 0.0003715384 0.0001745124 0.0003599242 0.0002000000 0.0003464102 0.0002244473 0.0003310942 0.0002476684 0.0003141025 0.0002694981 0.0002955855 0.0002897959 0.0002757142 0.0003084489 0.0002546748 0.0003253731 0.0002326635 0.0003405141 0.0002098813 0.0003538462 0.0001865285 0.0003751152 0.0001388833 0.0003894737 0.0000911606 0.0003975104 0.0000445590 0.0004000000 0.0000000000 "  stroke-width="0.0001800000" stroke="param(outline)" fill="none" />
<path d="M -0.0002932431 0.0017646548 A0.0010000000 0.0010000000 0 0 1 -0.0015877757 0.0008134466 " stroke-width="0.0001800000" stroke="param(outline)" fill="none"/>
<path d="M 0.0015876696 0.0008241980 A0.0010000000 0.0010000000 0 0 1 0.0002829843 0.0017614322 " stroke-width="0.0001800000" stroke="param(outline)" fill="none"/>
<path d="M 0.0012744761 -0.0012552734 A0.0010000000 0.0010000000 0 0 1 0.0017626689 0.0002751773 " stroke-width="0.0001800000" stroke="param(outline)" fill="none"/>
<path d="M -0.0008000000 -0.0016000000 A0.0010000000 0.0010000000 0 0 1 0.0008064050 -0.0015913637 " stroke-width="0.0001800000" stroke="param(outline)" fill="none"/>
<path d="M -0.0017689046 0.0002664176 A0.0010000000 0.0010000000 0 0 1 -0.0012642845 -0.0012586956 " stroke-width="0.0001800000" stroke="param(outline)" fill="none"/>
</symbol>
</svg>