<svg xmlns="http://www.w3.org/2000/svg">
<symbol id="DrzewoIglastePomnikPrzyrody" viewBox="-0.00207562814466655250 -0.00176119094248861070 0.00414828164502978320 0.00394588022027164700" style="stroke-linejoin:round">
<path d="M -0.0000018194 -0.0006861916 L -0.0012845757 -0.0017599291 L -0.0006518194 -0.0001961916" stroke-width="0.0001800000" stroke-linecap="round" stroke="param(outline)" fill="none"/>

<path d="M -0.0006518194 -0.0001961916 L -0.0020756279 0.0006787592 L -0.0003918194 0.0005438084" stroke-width="0.0001800000" stroke-linecap="round" stroke="param(outline)" fill="none"/>

<path d="M -0.0003918194 0.0005438084 L -0.0000007467 0.0021846891 L 0.0003881806 0.0005438084" stroke-width="0.0001800000" stroke-linecap="round" stroke="param(outline)" fill="none"/>

<path d="M 0.0003881806 0.0005438084 L 0.0020726533 0.0006767183 L 0.0006481806 -0.0001961916" stroke-width="0.0001800000" stroke-linecap="round" stroke="param(outline)" fill="none"/>

<path d="M 0.0006481806 -0.0001961916 L 0.0012792037 -0.0017611908 L -0.0000018194 -0.0006861916" stroke-width="0.0001800000" stroke-linecap="round" stroke="param(outline)" fill="none"/>

<polyline points= " 0.0003981806 -0.0000061916 0.0003956910 -0.0000507506 0.0003876543 -0.0000973522 0.0003732958 -0.0001450749 0.0003520268 -0.0001927201 0.0003386947 -0.0002160729 0.0003235538 -0.0002388551 0.0003066295 -0.0002608664 0.0002879765 -0.0002819058 0.0002676787 -0.0003017771 0.0002458490 -0.0003202941 0.0002226280 -0.0003372858 0.0001981806 -0.0003526018 0.0001726930 -0.0003661158 0.0001463671 -0.0003777300 0.0001194161 -0.0003873765 0.0000920582 -0.0003950193 0.0000645110 -0.0004006536 0.0000369866 -0.0004043048 0.0000096861 -0.0004060261 -0.0000172040 -0.0004058956 -0.0000691005 -0.0004004926 -0.0001176089 -0.0003890660 -0.0001619854 -0.0003727252 -0.0002018194 -0.0003526018 -0.0002391638 -0.0003281662 -0.0002755036 -0.0002979054 -0.0003096535 -0.0002616092 -0.0003402809 -0.0002193671 -0.0003538390 -0.0001961448 -0.0003659985 -0.0001716412 -0.0003765987 -0.0001459788 -0.0003854929 -0.0001193051 -0.0003925530 -0.0000917910 -0.0003976743 -0.0000636275 -0.0004007791 -0.0000350216 -0.0004018194 -0.0000061916 -0.0004007791 0.0000226384 -0.0003976743 0.0000512443 -0.0003925530 0.0000794078 -0.0003854929 0.0001069219 -0.0003765987 0.0001335956 -0.0003659985 0.0001592580 -0.0003538390 0.0001837616 -0.0003402809 0.0002069839 -0.0003096535 0.0002492260 -0.0002755036 0.0002855222 -0.0002391638 0.0003157830 -0.0002018194 0.0003402186 -0.0001619854 0.0003603420 -0.0001176089 0.0003766828 -0.0000691005 0.0003881094 -0.0000172040 0.0003935124 0.0000096861 0.0003936429 0.0000369866 0.0003919216 0.0000645110 0.0003882704 0.0000920582 0.0003826361 0.0001194161 0.0003749933 0.0001463671 0.0003653468 0.0001726930 0.0003537326 0.0001981806 0.0003402186 0.0002226280 0.0003249026 0.0002458490 0.0003079109 0.0002676787 0.0002893939 0.0002879765 0.0002695226 0.0003066295 0.0002484832 0.0003235538 0.0002264719 0.0003386947 0.0002036897 0.0003520268 0.0001803370 0.0003732958 0.0001326917 0.0003876543 0.0000849690 0.0003956910 0.0000383674 0.0003981806 -0.0000061916 "  stroke-width="0.0001800000" stroke-linecap="round" stroke="param(outline)" fill="none" />
</symbol>
</svg>