<svg xmlns="http://www.w3.org/2000/svg">
<symbol id="DrzewoIglaste" viewBox="-0.00155119353439658880 -0.00133198790717870000 0.00311121111735701560 0.00295941019430756570" style="stroke-linejoin:round">
<polyline points= " 0.0001000000 -0.0000200000 0.0000993776 -0.0000311397 0.0000985592 -0.0000369138 0.0000973684 -0.0000427901 0.0000957818 -0.0000487376 0.0000937788 -0.0000547208 0.0000913428 -0.0000607001 0.0000884615 -0.0000666321 0.0000851285 -0.0000724703 0.0000813433 -0.0000781659 0.0000771122 -0.0000836687 0.0000724490 -0.0000889286 0.0000673745 -0.0000938964 0.0000619171 -0.0000985256 0.0000561118 -0.0001027736 0.0000500000 -0.0001066025 0.0000436281 -0.0001099811 0.0000370466 -0.0001128846 0.0000303089 -0.0001152962 0.0000234694 -0.0001172069 0.0000165826 -0.0001186155 0.0000097015 -0.0001195283 0.0000028764 -0.0001199586 -0.0000038462 -0.0001199260 -0.0000104240 -0.0001194552 -0.0000168203 -0.0001185752 -0.0000230034 -0.0001173183 -0.0000289474 -0.0001157186 -0.0000346318 -0.0001138117 -0.0000400415 -0.0001116334 -0.0000451662 -0.0001092189 -0.0000500000 -0.0001066025 -0.0000593361 -0.0001004936 -0.0000639274 -0.0000968979 -0.0000684211 -0.0000929285 -0.0000727784 -0.0000885806 -0.0000769585 -0.0000838544 -0.0000809187 -0.0000787551 -0.0000846154 -0.0000732939 -0.0000880049 -0.0000674883 -0.0000910448 -0.0000613624 -0.0000936948 -0.0000549468 -0.0000959184 -0.0000482784 -0.0000976834 -0.0000413999 -0.0000989637 -0.0000343590 -0.0000997399 -0.0000272075 -0.0001000000 -0.0000200000 -0.0000997399 -0.0000127925 -0.0000989637 -0.0000056410 -0.0000976834 0.0000013999 -0.0000959184 0.0000082784 -0.0000936948 0.0000149468 -0.0000910448 0.0000213624 -0.0000880049 0.0000274883 -0.0000846154 0.0000332939 -0.0000809187 0.0000387551 -0.0000769585 0.0000438544 -0.0000727784 0.0000485806 -0.0000684211 0.0000529285 -0.0000639274 0.0000568979 -0.0000593361 0.0000604936 -0.0000546828 0.0000637245 -0.0000500000 0.0000666025 -0.0000400415 0.0000716334 -0.0000346318 0.0000738117 -0.0000289474 0.0000757186 -0.0000230034 0.0000773183 -0.0000168203 0.0000785752 -0.0000104240 0.0000794552 -0.0000038462 0.0000799260 0.0000028764 0.0000799586 0.0000097015 0.0000795283 0.0000165826 0.0000786155 0.0000234694 0.0000772069 0.0000303089 0.0000752962 0.0000370466 0.0000728846 0.0000436281 0.0000699811 0.0000500000 0.0000666025 0.0000561118 0.0000627736 0.0000619171 0.0000585256 0.0000673745 0.0000538964 0.0000724490 0.0000489286 0.0000771122 0.0000436687 0.0000813433 0.0000381659 0.0000851285 0.0000324703 0.0000884615 0.0000266321 0.0000913428 0.0000207001 0.0000937788 0.0000147208 0.0000957818 0.0000087376 0.0000973684 0.0000027901 0.0000985592 -0.0000030862 0.0000993776 -0.0000088603 0.0000998489 -0.0000145056 0.0001000000 -0.0000200000 " stroke-width="0.0000010000" stroke-linecap="round" stroke="param(outline)" fill="none"/>
<path d="M 0.0001000000 -0.0000200000 L 0.0000993776 -0.0000311397 L 0.0000985592 -0.0000369138 L 0.0000973684 -0.0000427901 L 0.0000957818 -0.0000487376 L 0.0000937788 -0.0000547208 L 0.0000913428 -0.0000607001 L 0.0000884615 -0.0000666321 L 0.0000851285 -0.0000724703 L 0.0000813433 -0.0000781659 L 0.0000771122 -0.0000836687 L 0.0000724490 -0.0000889286 L 0.0000673745 -0.0000938964 L 0.0000619171 -0.0000985256 L 0.0000561118 -0.0001027736 L 0.0000500000 -0.0001066025 L 0.0000436281 -0.0001099811 L 0.0000370466 -0.0001128846 L 0.0000303089 -0.0001152962 L 0.0000234694 -0.0001172069 L 0.0000165826 -0.0001186155 L 0.0000097015 -0.0001195283 L 0.0000028764 -0.0001199586 L -0.0000038462 -0.0001199260 L -0.0000104240 -0.0001194552 L -0.0000168203 -0.0001185752 L -0.0000230034 -0.0001173183 L -0.0000289474 -0.0001157186 L -0.0000346318 -0.0001138117 L -0.0000400415 -0.0001116334 L -0.0000451662 -0.0001092189 L -0.0000500000 -0.0001066025 L -0.0000593361 -0.0001004936 L -0.0000639274 -0.0000968979 L -0.0000684211 -0.0000929285 L -0.0000727784 -0.0000885806 L -0.0000769585 -0.0000838544 L -0.0000809187 -0.0000787551 L -0.0000846154 -0.0000732939 L -0.0000880049 -0.0000674883 L -0.0000910448 -0.0000613624 L -0.0000936948 -0.0000549468 L -0.0000959184 -0.0000482784 L -0.0000976834 -0.0000413999 L -0.0000989637 -0.0000343590 L -0.0000997399 -0.0000272075 L -0.0001000000 -0.0000200000 L -0.0000997399 -0.0000127925 L -0.0000989637 -0.0000056410 L -0.0000976834 0.0000013999 L -0.0000959184 0.0000082784 L -0.0000936948 0.0000149468 L -0.0000910448 0.0000213624 L -0.0000880049 0.0000274883 L -0.0000846154 0.0000332939 L -0.0000809187 0.0000387551 L -0.0000769585 0.0000438544 L -0.0000727784 0.0000485806 L -0.0000684211 0.0000529285 L -0.0000639274 0.0000568979 L -0.0000593361 0.0000604936 L -0.0000546828 0.0000637245 L -0.0000500000 0.0000666025 L -0.0000400415 0.0000716334 L -0.0000346318 0.0000738117 L -0.0000289474 0.0000757186 L -0.0000230034 0.0000773183 L -0.0000168203 0.0000785752 L -0.0000104240 0.0000794552 L -0.0000038462 0.0000799260 L 0.0000028764 0.0000799586 L 0.0000097015 0.0000795283 L 0.0000165826 0.0000786155 L 0.0000234694 0.0000772069 L 0.0000303089 0.0000752962 L 0.0000370466 0.0000728846 L 0.0000436281 0.0000699811 L 0.0000500000 0.0000666025 L 0.0000561118 0.0000627736 L 0.0000619171 0.0000585256 L 0.0000673745 0.0000538964 L 0.0000724490 0.0000489286 L 0.0000771122 0.0000436687 L 0.0000813433 0.0000381659 L 0.0000851285 0.0000324703 L 0.0000884615 0.0000266321 L 0.0000913428 0.0000207001 L 0.0000937788 0.0000147208 L 0.0000957818 0.0000087376 L 0.0000973684 0.0000027901 L 0.0000985592 -0.0000030862 L 0.0000993776 -0.0000088603 L 0.0000998489 -0.0000145056 L 0.0001000000 -0.0000200000 Z"
fill-rule="evenodd" stroke-width="0.0000000000" stroke="param(outline)" fill="param(fill)"/>
<path d="M -0.0004833371 -0.0001582384 L -0.0015511935 0.0004979747 L -0.0002883371 0.0003967616" stroke-width="0.0001800000" stroke-linecap="round" stroke="param(outline)" fill="none"/>

<path d="M 0.0000041629 -0.0005257384 L -0.0009579043 -0.0013310415 L -0.0004833371 -0.0001582384" stroke-width="0.0001800000" stroke-linecap="round" stroke="param(outline)" fill="none"/>

<path d="M 0.0004916629 -0.0001582384 L 0.0009649302 -0.0013319878 L 0.0000041629 -0.0005257384" stroke-width="0.0001800000" stroke-linecap="round" stroke="param(outline)" fill="none"/>

<path d="M 0.0002966629 0.0003967616 L 0.0015600174 0.0004964441 L 0.0004916629 -0.0001582384" stroke-width="0.0001800000" stroke-linecap="round" stroke="param(outline)" fill="none"/>

<path d="M -0.0002883371 0.0003967616 L 0.0000049674 0.0016274222 L 0.0002966629 0.0003967616" stroke-width="0.0001800000" stroke-linecap="round" stroke="param(outline)" fill="none"/>

</symbol>
</svg>