<?xml version="1.0" encoding="UTF-8"?> 
<!DOCTYPE svg PUBLIC "-//W3C//DTD SVG 1.0//EN" "http://www.w3.org/TR/SVG/DTD/svg10.dtd">
<svg xmlns="http://www.w3.org/2000/svg" xmlns:xlink="http://www.w3.org/1999/xlink" xmlns:gmsvgsym="http://www.intergraph.com/GeoMedia/svgsym">
<symbol id="InnaBudowlaSportowa" viewBox="-0.00435525039210915570 -0.00221985438838601110 0.00869999267160892490 0.00449998327530920510" style="stroke-linejoin:round"><!-- Creator: SVG Document for Symbols-->
<polyline points= " -0.0013552499 -0.0007198541 -0.0013575158 -0.0008022704 -0.0013645860 -0.0008869503 -0.0013768615 -0.0009735616 -0.0013947236 -0.0010617062 -0.0014185233 -0.0011509185 -0.0014485679 -0.0012406666 -0.0014851086 -0.0013303561 -0.0015283268 -0.0014193361 -0.0015783221 -0.0015069090 -0.0016058670 -0.0015499398 -0.0016351007 -0.0015923424 -0.0016660078 -0.0016340221 -0.0016985664 -0.0016748846 -0.0017327475 -0.0017148357 -0.0017685152 -0.0017537824 -0.0018058267 -0.0017916333 -0.0018446322 -0.0018282997 -0.0018848754 -0.0018636955 -0.0019264935 -0.0018977384 -0.0019694174 -0.0019303501 -0.0020135724 -0.0019614575 -0.0020588783 -0.0019909922 -0.0021052499 -0.0020188922 -0.0021525978 -0.0020451012 -0.0022008286 -0.0020695699 -0.0022498458 -0.0020922556 -0.0022995504 -0.0021131229 -0.0023498415 -0.0021321438 -0.0024006167 -0.0021492975 -0.0024517735 -0.0021645709 -0.0025032091 -0.0021779581 -0.0025548218 -0.0021894605 -0.0026065110 -0.0021990866 -0.0026581782 -0.0022068520 -0.0027097275 -0.0022127785 -0.0027610660 -0.0022168943 -0.0028121043 -0.0022192334 -0.0028627568 -0.0022198353 -0.0029129422 -0.0022187442 -0.0030116104 -0.0022116823 -0.0031075541 -0.0021984827 -0.0032003005 -0.0021796281 -0.0032894605 -0.0021556330 -0.0033747270 -0.0021270298 -0.0034558723 -0.0020943550 -0.0035327424 -0.0020581380 -0.0036052499 -0.0020188922 -0.0036754916 -0.0019757217 -0.0037452914 -0.0019272588 -0.0038141613 -0.0018733223 -0.0038815657 -0.0018137809 -0.0039469260 -0.0017485637 -0.0040096278 -0.0016776702 -0.0040690308 -0.0016011803 -0.0041244807 -0.0015192621 -0.0041753234 -0.0014321785 -0.0041988167 -0.0013868085 -0.0042209216 -0.0013402902 -0.0042415637 -0.0012926839 -0.0042606724 -0.0012440561 -0.0042781805 -0.0011944788 -0.0042940254 -0.0011440298 -0.0043081496 -0.0010927916 -0.0043205009 -0.0010408519 -0.0043310329 -0.0009883024 -0.0043397059 -0.0009352386 -0.0043464865 -0.0008817595 -0.0043513488 -0.0008279665 -0.0043542737 -0.0007739630 -0.0043552499 -0.0007198541 -0.0043542737 -0.0006657451 -0.0043513488 -0.0006117417 -0.0043464865 -0.0005579486 -0.0043397059 -0.0005044695 -0.0043310329 -0.0004514058 -0.0043205009 -0.0003988562 -0.0043081496 -0.0003469165 -0.0042940254 -0.0002956784 -0.0042781805 -0.0002452293 -0.0042606724 -0.0001956521 -0.0042415637 -0.0001470242 -0.0042209216 -0.0000994180 -0.0041988167 -0.0000528996 -0.0041753234 -0.0000075296 -0.0041505184 0.0000366376 -0.0041244807 0.0000795540 -0.0040690308 0.0001614721 -0.0040096278 0.0002379620 -0.0039469260 0.0003088555 -0.0038815657 0.0003740728 -0.0038141613 0.0004336141 -0.0037452914 0.0004875506 -0.0036754916 0.0005360136 -0.0036052499 0.0005791840 -0.0035327424 0.0006184299 -0.0034558723 0.0006546468 -0.0033747270 0.0006873217 -0.0032894605 0.0007159249 -0.0032003005 0.0007399199 -0.0031075541 0.0007587746 -0.0030116104 0.0007719741 -0.0029129422 0.0007790360 -0.0028121043 0.0007795253 -0.0027610660 0.0007771861 -0.0027097275 0.0007730703 -0.0026581782 0.0007671438 -0.0026065110 0.0007593785 -0.0025548218 0.0007497523 -0.0025032091 0.0007382499 -0.0024517735 0.0007248628 -0.0024006167 0.0007095894 -0.0023498415 0.0006924357 -0.0022995504 0.0006734148 -0.0022498458 0.0006525474 -0.0022008286 0.0006298617 -0.0021525978 0.0006053931 -0.0021052499 0.0005791840 -0.0020588783 0.0005512841 -0.0020135724 0.0005217493 -0.0019694174 0.0004906420 -0.0019264935 0.0004580302 -0.0018848754 0.0004239874 -0.0018446322 0.0003885916 -0.0018058267 0.0003519252 -0.0017685152 0.0003140742 -0.0017327475 0.0002751275 -0.0016985664 0.0002351765 -0.0016660078 0.0001943140 -0.0016351007 0.0001526342 -0.0016058670 0.0001102317 -0.0015783221 0.0000672008 -0.0015524747 0.0000236354 -0.0015283268 -0.0000203720 -0.0014851086 -0.0001093521 -0.0014485679 -0.0001990416 -0.0014185233 -0.0002887897 -0.0013947236 -0.0003780019 -0.0013768615 -0.0004661465 -0.0013645860 -0.0005527579 -0.0013575158 -0.0006374378 -0.0013552499 -0.0007198541 "  style = " stroke-width: 0.0001800000;stroke: #000000; fill: none; " />
<polyline points= " 0.0024447501 -0.0007198541 0.0024424842 -0.0008022704 0.0024354140 -0.0008869503 0.0024231385 -0.0009735616 0.0024052764 -0.0010617062 0.0023814767 -0.0011509185 0.0023514321 -0.0012406666 0.0023148914 -0.0013303561 0.0022716732 -0.0014193361 0.0022216779 -0.0015069090 0.0021941330 -0.0015499398 0.0021648993 -0.0015923424 0.0021339922 -0.0016340221 0.0021014336 -0.0016748846 0.0020672525 -0.0017148357 0.0020314848 -0.0017537824 0.0019941733 -0.0017916333 0.0019553678 -0.0018282997 0.0019151246 -0.0018636955 0.0018735065 -0.0018977384 0.0018305826 -0.0019303501 0.0017864276 -0.0019614575 0.0017411217 -0.0019909922 0.0016947501 -0.0020188922 0.0016474022 -0.0020451012 0.0015991714 -0.0020695699 0.0015501542 -0.0020922556 0.0015004496 -0.0021131229 0.0014501585 -0.0021321438 0.0013993833 -0.0021492975 0.0013482265 -0.0021645709 0.0012967909 -0.0021779581 0.0012451782 -0.0021894605 0.0011934890 -0.0021990866 0.0011418218 -0.0022068520 0.0010902725 -0.0022127785 0.0010389340 -0.0022168943 0.0009878957 -0.0022192334 0.0009372432 -0.0022198353 0.0008870578 -0.0022187442 0.0007883896 -0.0022116823 0.0006924459 -0.0021984827 0.0005996995 -0.0021796281 0.0005105395 -0.0021556330 0.0004252730 -0.0021270298 0.0003441277 -0.0020943550 0.0002672576 -0.0020581380 0.0001947501 -0.0020188922 0.0001245084 -0.0019757217 0.0000547086 -0.0019272588 -0.0000141613 -0.0018733223 -0.0000815657 -0.0018137809 -0.0001469260 -0.0017485637 -0.0002096278 -0.0016776702 -0.0002690308 -0.0016011803 -0.0003244807 -0.0015192621 -0.0003753234 -0.0014321785 -0.0003988167 -0.0013868085 -0.0004209216 -0.0013402902 -0.0004415637 -0.0012926839 -0.0004606724 -0.0012440561 -0.0004781805 -0.0011944788 -0.0004940254 -0.0011440298 -0.0005081496 -0.0010927916 -0.0005205009 -0.0010408519 -0.0005310329 -0.0009883024 -0.0005397059 -0.0009352386 -0.0005464865 -0.0008817595 -0.0005513488 -0.0008279665 -0.0005542737 -0.0007739630 -0.0005552499 -0.0007198541 -0.0005542737 -0.0006657451 -0.0005513488 -0.0006117417 -0.0005464865 -0.0005579486 -0.0005397059 -0.0005044695 -0.0005310329 -0.0004514058 -0.0005205009 -0.0003988562 -0.0005081496 -0.0003469165 -0.0004940254 -0.0002956784 -0.0004781805 -0.0002452293 -0.0004606724 -0.0001956521 -0.0004415637 -0.0001470242 -0.0004209216 -0.0000994180 -0.0003988167 -0.0000528996 -0.0003753234 -0.0000075296 -0.0003505184 0.0000366376 -0.0003244807 0.0000795540 -0.0002690308 0.0001614721 -0.0002096278 0.0002379620 -0.0001469260 0.0003088555 -0.0000815657 0.0003740728 -0.0000141613 0.0004336141 0.0000547086 0.0004875506 0.0001245084 0.0005360136 0.0001947501 0.0005791840 0.0002672576 0.0006184299 0.0003441277 0.0006546468 0.0004252730 0.0006873217 0.0005105395 0.0007159249 0.0005996995 0.0007399199 0.0006924459 0.0007587746 0.0007883896 0.0007719741 0.0008870578 0.0007790360 0.0009878957 0.0007795253 0.0010389340 0.0007771861 0.0010902725 0.0007730703 0.0011418218 0.0007671438 0.0011934890 0.0007593785 0.0012451782 0.0007497523 0.0012967909 0.0007382499 0.0013482265 0.0007248628 0.0013993833 0.0007095894 0.0014501585 0.0006924357 0.0015004496 0.0006734148 0.0015501542 0.0006525474 0.0015991714 0.0006298617 0.0016474022 0.0006053931 0.0016947501 0.0005791840 0.0017411217 0.0005512841 0.0017864276 0.0005217493 0.0018305826 0.0004906420 0.0018735065 0.0004580302 0.0019151246 0.0004239874 0.0019553678 0.0003885916 0.0019941733 0.0003519252 0.0020314848 0.0003140742 0.0020672525 0.0002751275 0.0021014336 0.0002351765 0.0021339922 0.0001943140 0.0021648993 0.0001526342 0.0021941330 0.0001102317 0.0022216779 0.0000672008 0.0022475253 0.0000236354 0.0022716732 -0.0000203720 0.0023148914 -0.0001093521 0.0023514321 -0.0001990416 0.0023814767 -0.0002887897 0.0024052764 -0.0003780019 0.0024231385 -0.0004661465 0.0024354140 -0.0005527579 0.0024424842 -0.0006374378 0.0024447501 -0.0007198541 "  style = " stroke-width: 0.0001800000;stroke: #000000; fill: none; " />
<polyline points= " 0.0005447419 0.0007801286 0.0005424760 0.0006977123 0.0005354058 0.0006130324 0.0005231304 0.0005264210 0.0005052682 0.0004382764 0.0004814686 0.0003490642 0.0004514239 0.0002593161 0.0004148832 0.0001696266 0.0003716650 0.0000806465 0.0003216697 -0.0000069263 0.0002941248 -0.0000499572 0.0002648912 -0.0000923597 0.0002339840 -0.0001340395 0.0002014254 -0.0001749020 0.0001672443 -0.0002148530 0.0001314766 -0.0002537997 0.0000941652 -0.0002916507 0.0000553597 -0.0003283171 0.0000151165 -0.0003637129 -0.0000265016 -0.0003977557 -0.0000694256 -0.0004303675 -0.0001135806 -0.0004614748 -0.0001588865 -0.0004910096 -0.0002052581 -0.0005189095 -0.0002526060 -0.0005451186 -0.0003008368 -0.0005695872 -0.0003498540 -0.0005922729 -0.0003995586 -0.0006131403 -0.0004498496 -0.0006321612 -0.0005006249 -0.0006493149 -0.0005517817 -0.0006645883 -0.0006032173 -0.0006779754 -0.0006548299 -0.0006894778 -0.0007065191 -0.0006991040 -0.0007581864 -0.0007068693 -0.0008097357 -0.0007127958 -0.0008610742 -0.0007169116 -0.0009121124 -0.0007192508 -0.0009627649 -0.0007198526 -0.0010129504 -0.0007187616 -0.0011116185 -0.0007116996 -0.0012075622 -0.0006985001 -0.0013003087 -0.0006796454 -0.0013894686 -0.0006556504 -0.0014747352 -0.0006270472 -0.0015558805 -0.0005943723 -0.0016327505 -0.0005581554 -0.0017052581 -0.0005189095 -0.0017754998 -0.0004757391 -0.0018452996 -0.0004272761 -0.0019141695 -0.0003733396 -0.0019815739 -0.0003137983 -0.0020469341 -0.0002485810 -0.0021096360 -0.0001776875 -0.0021690390 -0.0001011976 -0.0022244889 -0.0000192795 -0.0022753315 0.0000678041 -0.0022988249 0.0001131741 -0.0023209297 0.0001596925 -0.0023415719 0.0002072987 -0.0023606805 0.0002559266 -0.0023781886 0.0003055038 -0.0023940336 0.0003559529 -0.0024081578 0.0004071910 -0.0024205091 0.0004591307 -0.0024310411 0.0005116803 -0.0024397141 0.0005647440 -0.0024464947 0.0006182231 -0.0024513569 0.0006720162 -0.0024542819 0.0007260196 -0.0024552581 0.0007801286 -0.0024542819 0.0008342375 -0.0024513569 0.0008882410 -0.0024464947 0.0009420340 -0.0024397141 0.0009955131 -0.0024310411 0.0010485769 -0.0024205091 0.0011011264 -0.0024081578 0.0011530661 -0.0023940336 0.0012043043 -0.0023781886 0.0012547533 -0.0023606805 0.0013043306 -0.0023415719 0.0013529584 -0.0023209297 0.0014005647 -0.0022988249 0.0014470830 -0.0022753315 0.0014924530 -0.0022505265 0.0015366203 -0.0022244889 0.0015795366 -0.0021690390 0.0016614548 -0.0021096360 0.0017379447 -0.0020469341 0.0018088382 -0.0019815739 0.0018740554 -0.0019141695 0.0019335968 -0.0018452996 0.0019875333 -0.0017754998 0.0020359962 -0.0017052581 0.0020791667 -0.0016327505 0.0021184125 -0.0015558805 0.0021546295 -0.0014747352 0.0021873043 -0.0013894686 0.0022159075 -0.0013003087 0.0022399025 -0.0012075622 0.0022587572 -0.0011116185 0.0022719568 -0.0010129504 0.0022790187 -0.0009121124 0.0022795079 -0.0008610742 0.0022771688 -0.0008097357 0.0022730530 -0.0007581864 0.0022671265 -0.0007065191 0.0022593611 -0.0006548299 0.0022497350 -0.0006032173 0.0022382326 -0.0005517817 0.0022248454 -0.0005006249 0.0022095720 -0.0004498496 0.0021924183 -0.0003995586 0.0021733974 -0.0003498540 0.0021525301 -0.0003008368 0.0021298444 -0.0002526060 0.0021053757 -0.0002052581 0.0020791667 -0.0001588865 0.0020512667 -0.0001135806 0.0020217320 -0.0000694256 0.0019906246 -0.0000265016 0.0019580129 0.0000151165 0.0019239700 0.0000553597 0.0018885742 0.0000941652 0.0018519078 0.0001314766 0.0018140569 0.0001672443 0.0017751102 0.0002014254 0.0017351591 0.0002339840 0.0016942966 0.0002648912 0.0016526168 0.0002941248 0.0016102143 0.0003216697 0.0015671835 0.0003475171 0.0015236181 0.0003716650 0.0014796106 0.0004148832 0.0013906306 0.0004514239 0.0013009411 0.0004814686 0.0012111930 0.0005052682 0.0011219807 0.0005231304 0.0010338361 0.0005354058 0.0009472248 0.0005424760 0.0008625449 0.0005447419 0.0007801286 "  style = " stroke-width: 0.0001800000;stroke: #000000; fill: none; " />
<polyline points= " 0.0024447501 -0.0007198541 0.0024424842 -0.0008022704 0.0024354140 -0.0008869503 0.0024231385 -0.0009735616 0.0024052764 -0.0010617062 0.0023814767 -0.0011509185 0.0023514321 -0.0012406666 0.0023148914 -0.0013303561 0.0022716732 -0.0014193361 0.0022216779 -0.0015069090 0.0021941330 -0.0015499398 0.0021648993 -0.0015923424 0.0021339922 -0.0016340221 0.0021014336 -0.0016748846 0.0020672525 -0.0017148357 0.0020314848 -0.0017537824 0.0019941733 -0.0017916333 0.0019553678 -0.0018282997 0.0019151246 -0.0018636955 0.0018735065 -0.0018977384 0.0018305826 -0.0019303501 0.0017864276 -0.0019614575 0.0017411217 -0.0019909922 0.0016947501 -0.0020188922 0.0016474022 -0.0020451012 0.0015991714 -0.0020695699 0.0015501542 -0.0020922556 0.0015004496 -0.0021131229 0.0014501585 -0.0021321438 0.0013993833 -0.0021492975 0.0013482265 -0.0021645709 0.0012967909 -0.0021779581 0.0012451782 -0.0021894605 0.0011934890 -0.0021990866 0.0011418218 -0.0022068520 0.0010902725 -0.0022127785 0.0010389340 -0.0022168943 0.0009878957 -0.0022192334 0.0009372432 -0.0022198353 0.0008870578 -0.0022187442 0.0007883896 -0.0022116823 0.0006924459 -0.0021984827 0.0005996995 -0.0021796281 0.0005105395 -0.0021556330 0.0004252730 -0.0021270298 0.0003441277 -0.0020943550 0.0002672576 -0.0020581380 0.0001947501 -0.0020188922 0.0001245084 -0.0019757217 0.0000547086 -0.0019272588 -0.0000141613 -0.0018733223 -0.0000815657 -0.0018137809 -0.0001469260 -0.0017485637 -0.0002096278 -0.0016776702 -0.0002690308 -0.0016011803 -0.0003244807 -0.0015192621 -0.0003753234 -0.0014321785 -0.0003988167 -0.0013868085 -0.0004209216 -0.0013402902 -0.0004415637 -0.0012926839 -0.0004606724 -0.0012440561 -0.0004781805 -0.0011944788 -0.0004940254 -0.0011440298 -0.0005081496 -0.0010927916 -0.0005205009 -0.0010408519 -0.0005310329 -0.0009883024 -0.0005397059 -0.0009352386 -0.0005464865 -0.0008817595 -0.0005513488 -0.0008279665 -0.0005542737 -0.0007739630 -0.0005552499 -0.0007198541 -0.0005542737 -0.0006657451 -0.0005513488 -0.0006117417 -0.0005464865 -0.0005579486 -0.0005397059 -0.0005044695 -0.0005310329 -0.0004514058 -0.0005205009 -0.0003988562 -0.0005081496 -0.0003469165 -0.0004940254 -0.0002956784 -0.0004781805 -0.0002452293 -0.0004606724 -0.0001956521 -0.0004415637 -0.0001470242 -0.0004209216 -0.0000994180 -0.0003988167 -0.0000528996 -0.0003753234 -0.0000075296 -0.0003505184 0.0000366376 -0.0003244807 0.0000795540 -0.0002690308 0.0001614721 -0.0002096278 0.0002379620 -0.0001469260 0.0003088555 -0.0000815657 0.0003740728 -0.0000141613 0.0004336141 0.0000547086 0.0004875506 0.0001245084 0.0005360136 0.0001947501 0.0005791840 0.0002672576 0.0006184299 0.0003441277 0.0006546468 0.0004252730 0.0006873217 0.0005105395 0.0007159249 0.0005996995 0.0007399199 0.0006924459 0.0007587746 0.0007883896 0.0007719741 0.0008870578 0.0007790360 0.0009878957 0.0007795253 0.0010389340 0.0007771861 0.0010902725 0.0007730703 0.0011418218 0.0007671438 0.0011934890 0.0007593785 0.0012451782 0.0007497523 0.0012967909 0.0007382499 0.0013482265 0.0007248628 0.0013993833 0.0007095894 0.0014501585 0.0006924357 0.0015004496 0.0006734148 0.0015501542 0.0006525474 0.0015991714 0.0006298617 0.0016474022 0.0006053931 0.0016947501 0.0005791840 0.0017411217 0.0005512841 0.0017864276 0.0005217493 0.0018305826 0.0004906420 0.0018735065 0.0004580302 0.0019151246 0.0004239874 0.0019553678 0.0003885916 0.0019941733 0.0003519252 0.0020314848 0.0003140742 0.0020672525 0.0002751275 0.0021014336 0.0002351765 0.0021339922 0.0001943140 0.0021648993 0.0001526342 0.0021941330 0.0001102317 0.0022216779 0.0000672008 0.0022475253 0.0000236354 0.0022716732 -0.0000203720 0.0023148914 -0.0001093521 0.0023514321 -0.0001990416 0.0023814767 -0.0002887897 0.0024052764 -0.0003780019 0.0024231385 -0.0004661465 0.0024354140 -0.0005527579 0.0024424842 -0.0006374378 0.0024447501 -0.0007198541 "  style = " stroke-width: 0.0001800000;stroke: #000000; fill: none; " />
<polyline points= " 0.0043447419 0.0007801286 0.0043424760 0.0006977123 0.0043354058 0.0006130324 0.0043231304 0.0005264210 0.0043052682 0.0004382764 0.0042814686 0.0003490642 0.0042514239 0.0002593161 0.0042148832 0.0001696266 0.0041716650 0.0000806465 0.0041216697 -0.0000069263 0.0040941248 -0.0000499572 0.0040648912 -0.0000923597 0.0040339840 -0.0001340395 0.0040014254 -0.0001749020 0.0039672443 -0.0002148530 0.0039314766 -0.0002537997 0.0038941652 -0.0002916507 0.0038553597 -0.0003283171 0.0038151165 -0.0003637129 0.0037734984 -0.0003977557 0.0037305744 -0.0004303675 0.0036864194 -0.0004614748 0.0036411135 -0.0004910096 0.0035947419 -0.0005189095 0.0035473940 -0.0005451186 0.0034991632 -0.0005695872 0.0034501460 -0.0005922729 0.0034004414 -0.0006131403 0.0033501504 -0.0006321612 0.0032993751 -0.0006493149 0.0032482183 -0.0006645883 0.0031967827 -0.0006779754 0.0031451701 -0.0006894778 0.0030934809 -0.0006991040 0.0030418136 -0.0007068693 0.0029902643 -0.0007127958 0.0029389258 -0.0007169116 0.0028878876 -0.0007192508 0.0028372351 -0.0007198526 0.0027870496 -0.0007187616 0.0026883815 -0.0007116996 0.0025924378 -0.0006985001 0.0024996913 -0.0006796454 0.0024105314 -0.0006556504 0.0023252648 -0.0006270472 0.0022441195 -0.0005943723 0.0021672495 -0.0005581554 0.0020947419 -0.0005189095 0.0020245002 -0.0004757391 0.0019547004 -0.0004272761 0.0018858305 -0.0003733396 0.0018184261 -0.0003137983 0.0017530659 -0.0002485810 0.0016903640 -0.0001776875 0.0016309610 -0.0001011976 0.0015755111 -0.0000192795 0.0015246685 0.0000678041 0.0015011751 0.0001131741 0.0014790703 0.0001596925 0.0014584281 0.0002072987 0.0014393195 0.0002559266 0.0014218114 0.0003055038 0.0014059664 0.0003559529 0.0013918422 0.0004071910 0.0013794909 0.0004591307 0.0013689589 0.0005116803 0.0013602859 0.0005647440 0.0013535053 0.0006182231 0.0013486431 0.0006720162 0.0013457181 0.0007260196 0.0013447419 0.0007801286 0.0013457181 0.0008342375 0.0013486431 0.0008882410 0.0013535053 0.0009420340 0.0013602859 0.0009955131 0.0013689589 0.0010485769 0.0013794909 0.0011011264 0.0013918422 0.0011530661 0.0014059664 0.0012043043 0.0014218114 0.0012547533 0.0014393195 0.0013043306 0.0014584281 0.0013529584 0.0014790703 0.0014005647 0.0015011751 0.0014470830 0.0015246685 0.0014924530 0.0015494735 0.0015366203 0.0015755111 0.0015795366 0.0016309610 0.0016614548 0.0016903640 0.0017379447 0.0017530659 0.0018088382 0.0018184261 0.0018740554 0.0018858305 0.0019335968 0.0019547004 0.0019875333 0.0020245002 0.0020359962 0.0020947419 0.0020791667 0.0021672495 0.0021184125 0.0022441195 0.0021546295 0.0023252648 0.0021873043 0.0024105314 0.0022159075 0.0024996913 0.0022399025 0.0025924378 0.0022587572 0.0026883815 0.0022719568 0.0027870496 0.0022790187 0.0028878876 0.0022795079 0.0029389258 0.0022771688 0.0029902643 0.0022730530 0.0030418136 0.0022671265 0.0030934809 0.0022593611 0.0031451701 0.0022497350 0.0031967827 0.0022382326 0.0032482183 0.0022248454 0.0032993751 0.0022095720 0.0033501504 0.0021924183 0.0034004414 0.0021733974 0.0034501460 0.0021525301 0.0034991632 0.0021298444 0.0035473940 0.0021053757 0.0035947419 0.0020791667 0.0036411135 0.0020512667 0.0036864194 0.0020217320 0.0037305744 0.0019906246 0.0037734984 0.0019580129 0.0038151165 0.0019239700 0.0038553597 0.0018885742 0.0038941652 0.0018519078 0.0039314766 0.0018140569 0.0039672443 0.0017751102 0.0040014254 0.0017351591 0.0040339840 0.0016942966 0.0040648912 0.0016526168 0.0040941248 0.0016102143 0.0041216697 0.0015671835 0.0041475171 0.0015236181 0.0041716650 0.0014796106 0.0042148832 0.0013906306 0.0042514239 0.0013009411 0.0042814686 0.0012111930 0.0043052682 0.0011219807 0.0043231304 0.0010338361 0.0043354058 0.0009472248 0.0043424760 0.0008625449 0.0043447419 0.0007801286 "  style = " stroke-width: 0.0001800000;stroke: #000000; fill: none; " />
</symbol>
</svg>