<?xml version="1.0" encoding="UTF-8"?> 
<!DOCTYPE svg PUBLIC "-//W3C//DTD SVG 1.0//EN" "http://www.w3.org/TR/SVG/DTD/svg10.dtd">
<svg xmlns="http://www.w3.org/2000/svg" xmlns:xlink="http://www.w3.org/1999/xlink" xmlns:gmsvgsym="http://www.intergraph.com/GeoMedia/svgsym">
<symbol id="KortSymbol" viewBox="-0.00444553187116980550 -0.00488430308178067210 0.00890338560566306110 0.00688430340960621830" style="stroke-linejoin:round"><!-- Creator: SVG Document for Symbols-->
<polyline points= " 0.0018000000 0.0020000000 -0.0000000000 -0.0000000000"  style = "  stroke-width: 0.0001800000; stroke-linecap: round;stroke: #000000; fill: none; " />
<polyline points= " -0.0018000000 0.0020000000 0.0000000000 -0.0000000000"  style = "  stroke-width: 0.0001800000; stroke-linecap: round;stroke: #000000; fill: none; " />
<polyline points= " -0.0018000000 0.0020000000 0.0008758589 -0.0009731766"  style = "  stroke-width: 0.0001800000; stroke-linecap: round;stroke: #000000; fill: none; " />
<polyline points= " 0.0018000000 0.0020000000 -0.0008758589 -0.0009731766"  style = "  stroke-width: 0.0001800000; stroke-linecap: round;stroke: #000000; fill: none; " />
<polyline points= " -0.0018000000 0.0020000000 0.0008758589 -0.0009731766"  style = "  stroke-width: 0.0001800000; stroke-linecap: round;stroke: #000000; fill: none; " />
<g id ="Arc2d_0" style = " stroke-width: 0.0001800000;stroke: #000000; fill: none; " >

<polyline points= " 0.0023278997 -0.0040764941 0.0023808275 -0.0041338111 0.0024360965 -0.0041906546 0.0024936294 -0.0042467946 0.0025533275 -0.0043019905 0.0026150694 -0.0043559929 0.0026787108 -0.0044085467 0.0027440853 -0.0044593934 0.0028110042 -0.0045082743 0.0028792580 -0.0045549342 0.0029486180 -0.0045991244 0.0030188385 -0.0046406067 0.0030896588 -0.0046791567 0.0031608066 -0.0047145677 0.0032320013 -0.0047466535 0.0033029571 -0.0047752518 0.0033733873 -0.0048002265 0.0034430079 -0.0048214701 0.0035115412 -0.0048389048 0.0035787198 -0.0048524838 0.0036442900 -0.0048621914 0.0037080146 -0.0048680427 0.0037696761 -0.0048700829 0.0038290785 -0.0048683858 0.0038860494 -0.0048630515 0.0039404411 -0.0048542044 0.0039921313 -0.0048419904 0.0040410231 -0.0048265739 0.0040870450 -0.0048081347 0.0041301499 -0.0047868650 0.0041703142 -0.0047629662 0.0042075364 -0.0047366458 0.0042418351 -0.0047081147 0.0042738060 -0.0046769974 0.0043038849 -0.0046427408 0.0043318642 -0.0046053044 0.0043575372 -0.0045646678 0.0043807013 -0.0045208336 0.0044011604 -0.0044738282 0.0044187281 -0.0044237041 0.0044332307 -0.0043705401 0.0044445105 -0.0043144428 0.0044524281 -0.0042555460 0.0044568659 -0.0041940106 0.0044577300 -0.0041300237 0.0044549527 -0.0040637971 0.0044484940 -0.0039955648 0.0044383429 -0.0039255810 0.0044245180 -0.0038541164 0.0044070673 -0.0037814553 0.0043860683 -0.0037078915 0.0043616260 -0.0036337245 0.0043338720 -0.0035592552 0.0043029619 -0.0034847825 0.0042690728 -0.0034105988 0.0042324004 -0.0033369868 0.0041931560 -0.0032642159 0.0041515628 -0.0031925397 0.0041078527 -0.0031221931 0.0040622632 -0.0030533910 0.0040150337 -0.0029863261 0.0039664032 -0.0029211685 0.0039166065 -0.0028580651 0.0038658728 -0.0027971395 0.0038144228 -0.0027384923 "  style = " stroke-width: 0.0001800000;stroke: #000000; fill: none; " />
</g>
<g id ="Arc2d_1" style = " stroke-width: 0.0001800000;stroke: #000000; fill: none; " >

<polyline points= " 0.0026360211 -0.0014448251 0.0025812054 -0.0013944448 0.0025245386 -0.0013449503 0.0024661189 -0.0012965465 0.0024060621 -0.0012494443 0.0023445021 -0.0012038576 0.0022815903 -0.0011600022 0.0022174952 -0.0011180924 0.0021524014 -0.0010783393 0.0020865083 -0.0010409473 0.0020200285 -0.0010061121 0.0019531858 -0.0009740176 0.0018862134 -0.0009448332 0.0018193506 -0.0009187114 0.0017528408 -0.0008957856 0.0016869283 -0.0008761678 0.0016218553 -0.0008599471 0.0015578594 -0.0008471885 0.0014951702 -0.0008379319 0.0014340066 -0.0008321918 0.0013745747 -0.0008299572 0.0013170653 -0.0008311923 0.0012616518 -0.0008358371 0.0012084887 -0.0008438094 0.0011577107 -0.0008550057 0.0011094314 -0.0008693037 0.0010637434 -0.0008865643 0.0010207179 -0.0009066341 0.0009804051 -0.0009293477 0.0009428351 -0.0009545302 0.0009080184 -0.0009820000 0.0008759477 -0.0010115707 0.0008465985 -0.0010430538 0.0008194999 -0.0010768401 0.0007943218 -0.0011134649 0.0007712389 -0.0011529431 0.0007504225 -0.0011952716 0.0007320386 -0.0012404276 0.0007162460 -0.0012883680 0.0007031932 -0.0013390281 0.0006930168 -0.0013923211 0.0006858386 -0.0014481383 0.0006817641 -0.0015063486 0.0006808799 -0.0015667996 0.0006832521 -0.0016293185 0.0006889251 -0.0016937133 0.0006979202 -0.0017597747 0.0007102348 -0.0018272783 0.0007258424 -0.0018959873 0.0007446924 -0.0019656546 0.0007667105 -0.0020360265 0.0007918004 -0.0021068453 0.0008198443 -0.0021778525 0.0008507050 -0.0022487922 0.0008842280 -0.0023194134 0.0009202436 -0.0023894738 0.0009585694 -0.0024587412 0.0009990131 -0.0025269968 0.0010413746 -0.0025940365 0.0010854494 -0.0026596728 0.0011310302 -0.0027237358 0.0011779101 -0.0027860743 0.0012258843 -0.0028465559 0.0012747526 -0.0029050677 0.0013243208 -0.0029615156 "  style = " stroke-width: 0.0001800000;stroke: #000000; fill: none; " />
</g>
<polyline points= " 0.0039815953 -0.0029242214 0.0026437490 -0.0014378709"  style = "  stroke-width: 0.0001800000; stroke-linecap: round;stroke: #000000; fill: none; " />
<polyline points= " 0.0024950721 -0.0042622232 0.0025026894 -0.0042553669"  style = "  stroke-width: 0.0001800000; stroke-linecap: round;stroke: #000000; fill: none; " />
<polyline points= " 0.0024950721 -0.0042622232 0.0013243208 -0.0029615156"  style = "  stroke-width: 0.0001800000; stroke-linecap: round;stroke: #000000; fill: none; " />
<g id ="Arc2d_2" style = " stroke-width: 0.0001800000;stroke: #000000; fill: none; " >

<polyline points= " -0.0038244299 -0.0027535266 -0.0038749409 -0.0028129844 -0.0039246994 -0.0028747090 -0.0039734865 -0.0029385962 -0.0040210749 -0.0030045188 -0.0040672320 -0.0030723261 -0.0041117218 -0.0031418445 -0.0041543079 -0.0032128771 -0.0041947562 -0.0032852056 -0.0042328386 -0.0033585912 -0.0042683359 -0.0034327771 -0.0043010412 -0.0035074902 -0.0043307633 -0.0035824450 -0.0043573297 -0.0036573461 -0.0043805897 -0.0037318924 -0.0044004164 -0.0038057808 -0.0044167095 -0.0038787101 -0.0044293964 -0.0039503855 -0.0044384335 -0.0040205219 -0.0044438065 -0.0040888482 -0.0044455304 -0.0041551107 -0.0044436491 -0.0042190757 -0.0044382334 -0.0042805327 -0.0044293804 -0.0043392962 -0.0044172101 -0.0043952071 -0.0044018639 -0.0044481338 -0.0043835015 -0.0044979722 -0.0043622976 -0.0045446464 -0.0043384396 -0.0045881068 -0.0043121236 -0.0046283300 -0.0042835527 -0.0046653168 -0.0042529328 -0.0046990908 -0.0042204712 -0.0047296958 -0.0041857232 -0.0047576780 -0.0041480873 -0.0047834033 -0.0041075480 -0.0048066604 -0.0040641103 -0.0048272420 -0.0040178011 -0.0048449472 -0.0039686704 -0.0048595843 -0.0039167926 -0.0048709749 -0.0038622670 -0.0048789561 -0.0038052185 -0.0048833839 -0.0037457966 -0.0048841363 -0.0036841754 -0.0048811159 -0.0036205518 -0.0048742521 -0.0035551443 -0.0048635032 -0.0034881901 -0.0048488578 -0.0034199427 -0.0048303356 -0.0033506687 -0.0048079878 -0.0032806444 -0.0047818963 -0.0032101523 -0.0047521734 -0.0031394768 -0.0047189597 -0.0030689010 -0.0046824220 -0.0029987026 -0.0046427508 -0.0029291506 -0.0046001573 -0.0028605019 -0.0045548698 -0.0027929986 -0.0045071306 -0.0027268654 -0.0044571918 -0.0026623077 -0.0044053121 -0.0025995098 -0.0043517530 -0.0025386344 -0.0042967758 -0.0024798215 -0.0042406377 -0.0024231884 -0.0041835900 -0.0023688303 -0.0041258749 -0.0023168204 -0.0040677236 "  style = " stroke-width: 0.0001800000;stroke: #000000; fill: none; " />
</g>
<g id ="Arc2d_3" style = " stroke-width: 0.0001800000;stroke: #000000; fill: none; " >

<polyline points= " -0.0011748103 -0.0027418207 -0.0011314131 -0.0026813261 -0.0010891185 -0.0026191006 -0.0010481183 -0.0025552667 -0.0010086075 -0.0024899647 -0.0009707828 -0.0024233534 -0.0009348397 -0.0023556092 -0.0009009708 -0.0022869251 -0.0008693633 -0.0022175098 -0.0008401963 -0.0021475859 -0.0008136381 -0.0020773882 -0.0007898443 -0.0020071611 -0.0007689551 -0.0019371562 -0.0007510929 -0.0018676298 -0.0007363606 -0.0017988395 -0.0007248401 -0.0017310413 -0.0007165906 -0.0016644865 -0.0007116479 -0.0015994186 -0.0007100240 -0.0015360704 -0.0007117067 -0.0014746611 -0.0007166604 -0.0014153940 -0.0007248263 -0.0013584539 -0.0007361242 -0.0013040058 -0.0007504537 -0.0012521933 -0.0007676958 -0.0012031374 -0.0007877154 -0.0011569364 -0.0008103632 -0.0011136652 -0.0008354785 -0.0010733760 -0.0008628908 -0.0010360988 -0.0008924231 -0.0010018422 -0.0009238936 -0.0009705949 -0.0009571183 -0.0009423270 -0.0009919130 -0.0009169915 -0.0010287225 -0.0008941680 -0.0010681180 -0.0008735937 -0.0011100933 -0.0008554434 -0.0011546244 -0.0008398871 -0.0012016689 -0.0008270868 -0.0012511647 -0.0008171947 -0.0013030297 -0.0008103507 -0.0013571613 -0.0008066798 -0.0014134368 -0.0008062898 -0.0014717134 -0.0008092696 -0.0015318294 -0.0008156867 -0.0015936051 -0.0008255860 -0.0016568447 -0.0008389884 -0.0017213378 -0.0008558897 -0.0017868621 -0.0008762603 -0.0018531855 -0.0009000453 -0.0019200690 -0.0009271645 -0.0019872696 -0.0009575139 -0.0020545431 -0.0009909665 -0.0021216473 -0.0010273742 -0.0021883444 -0.0010665699 -0.0022544042 -0.0011083701 -0.0023196064 -0.0011525770 -0.0023837427 -0.0011989816 -0.0024466190 -0.0012473664 -0.0025080568 -0.0012975084 -0.0025678947 -0.0013491817 -0.0026259891 -0.0014021602 -0.0026822148 -0.0014562201 -0.0027364652 -0.0015111424 -0.0027886522 -0.0015667145 -0.0028387059 -0.0016227322 "  style = " stroke-width: 0.0001800000;stroke: #000000; fill: none; " />
</g>
<polyline points= " -0.0024810187 -0.0042560872 -0.0011669744 -0.0027486530"  style = "  stroke-width: 0.0001800000; stroke-linecap: round;stroke: #000000; fill: none; " />
<polyline points= " -0.0039886281 -0.0029418902 -0.0039809028 -0.0029486245"  style = "  stroke-width: 0.0001800000; stroke-linecap: round;stroke: #000000; fill: none; " />
<polyline points= " -0.0039886281 -0.0029418902 -0.0028387059 -0.0016227322"  style = "  stroke-width: 0.0001800000; stroke-linecap: round;stroke: #000000; fill: none; " />
</symbol>
</svg>