<?xml version="1.0" encoding="UTF-8"?> 
<!DOCTYPE svg PUBLIC "-//W3C//DTD SVG 1.0//EN" "http://www.w3.org/TR/SVG/DTD/svg10.dtd">
<svg xmlns="http://www.w3.org/2000/svg" xmlns:xlink="http://www.w3.org/1999/xlink" xmlns:gmsvgsym="http://www.intergraph.com/GeoMedia/svgsym">
<symbol id="OdbojLubDalba" viewBox="-0.00125000008847564460 -0.00093301275046542287 0.00250000017695128920 0.00229903828585520390" style="stroke-linejoin:round"><!-- Creator: SVG Document for Symbols-->
<g id = "ComplexString2d_0" style = " fill-rule: evenodd; stroke-width: 0.0000000000;stroke: #ffffff; fill: #ffffff; " >
<path d="M -0.0002500000 -0.0004330127 L -0.0002531120 -0.0004887114 L -0.0002572038 -0.0005175819 L -0.0002631579 -0.0005469634 L -0.0002710911 -0.0005767008 L -0.0002811060 -0.0006066169 L -0.0002932862 -0.0006365134 L -0.0003076923 -0.0006661734 L -0.0003243574 -0.0006953643 L -0.0003432836 -0.0007238421 L -0.0003644388 -0.0007513562 L -0.0003877551 -0.0007776555 L -0.0004131274 -0.0008024946 L -0.0004404145 -0.0008256408 L -0.0004694408 -0.0008468805 L -0.0005000000 -0.0008660254 L -0.0005318596 -0.0008829180 L -0.0005647668 -0.0008974357 L -0.0005984556 -0.0009094939 L -0.0006326531 -0.0009190474 L -0.0006670870 -0.0009260902 L -0.0007014925 -0.0009306542 L -0.0007356181 -0.0009328058 L -0.0007692308 -0.0009326427 L -0.0008021201 -0.0009302888 L -0.0008341014 -0.0009258889 L -0.0008650169 -0.0009196040 L -0.0008947368 -0.0009116057 L -0.0009231590 -0.0009020713 L -0.0009502075 -0.0008911797 L -0.0009758308 -0.0008791074 L -0.0010000000 -0.0008660254 L -0.0010466805 -0.0008354809 L -0.0010696371 -0.0008175021 L -0.0010921053 -0.0007976550 L -0.0011138920 -0.0007759159 L -0.0011347926 -0.0007522847 L -0.0011545936 -0.0007267881 L -0.0011730769 -0.0006994821 L -0.0011900245 -0.0006704542 L -0.0012052239 -0.0006398247 L -0.0012184741 -0.0006077467 L -0.0012295918 -0.0005744046 L -0.0012384170 -0.0005400120 L -0.0012448187 -0.0005048076 L -0.0012486996 -0.0004690502 L -0.0012500000 -0.0004330127 L -0.0012486996 -0.0003969752 L -0.0012448187 -0.0003612178 L -0.0012384170 -0.0003260134 L -0.0012295918 -0.0002916208 L -0.0012184741 -0.0002582787 L -0.0012052239 -0.0002262007 L -0.0011900245 -0.0001955712 L -0.0011730769 -0.0001665433 L -0.0011545936 -0.0001392373 L -0.0011347926 -0.0001137407 L -0.0011138920 -0.0000901095 L -0.0010921053 -0.0000683704 L -0.0010696371 -0.0000485233 L -0.0010466805 -0.0000305445 L -0.0010234139 -0.0000143902 L -0.0010000000 -0.0000000000 L -0.0009502075 0.0000251543 L -0.0009231590 0.0000360459 L -0.0008947368 0.0000455803 L -0.0008650169 0.0000535786 L -0.0008341014 0.0000598635 L -0.0008021201 0.0000642634 L -0.0007692308 0.0000666173 L -0.0007356181 0.0000667804 L -0.0007014925 0.0000646288 L -0.0006670870 0.0000600648 L -0.0006326531 0.0000530220 L -0.0005984556 0.0000434685 L -0.0005647668 0.0000314102 L -0.0005318596 0.0000168926 L -0.0005000000 -0.0000000000 L -0.0004694408 -0.0000191449 L -0.0004404145 -0.0000403846 L -0.0004131274 -0.0000635308 L -0.0003877551 -0.0000883699 L -0.0003644388 -0.0001146692 L -0.0003432836 -0.0001421833 L -0.0003243574 -0.0001706611 L -0.0003076923 -0.0001998520 L -0.0002932862 -0.0002295120 L -0.0002811060 -0.0002594085 L -0.0002710911 -0.0002893246 L -0.0002631579 -0.0003190620 L -0.0002572038 -0.0003484435 L -0.0002531120 -0.0003773140 L -0.0002507553 -0.0004055406 L -0.0002500000 -0.0004330127 Z"/>
</g>
<polyline points= " -0.0002500000 -0.0004330127 -0.0002531120 -0.0004887114 -0.0002572038 -0.0005175819 -0.0002631579 -0.0005469634 -0.0002710911 -0.0005767008 -0.0002811060 -0.0006066169 -0.0002932862 -0.0006365134 -0.0003076923 -0.0006661734 -0.0003243574 -0.0006953643 -0.0003432836 -0.0007238421 -0.0003644388 -0.0007513562 -0.0003877551 -0.0007776555 -0.0004131274 -0.0008024946 -0.0004404145 -0.0008256408 -0.0004694408 -0.0008468805 -0.0005000000 -0.0008660254 -0.0005318596 -0.0008829180 -0.0005647668 -0.0008974357 -0.0005984556 -0.0009094939 -0.0006326531 -0.0009190474 -0.0006670870 -0.0009260902 -0.0007014925 -0.0009306542 -0.0007356181 -0.0009328058 -0.0007692308 -0.0009326427 -0.0008021201 -0.0009302888 -0.0008341014 -0.0009258889 -0.0008650169 -0.0009196040 -0.0008947368 -0.0009116057 -0.0009231590 -0.0009020713 -0.0009502075 -0.0008911797 -0.0009758308 -0.0008791074 -0.0010000000 -0.0008660254 -0.0010466805 -0.0008354809 -0.0010696371 -0.0008175021 -0.0010921053 -0.0007976550 -0.0011138920 -0.0007759159 -0.0011347926 -0.0007522847 -0.0011545936 -0.0007267881 -0.0011730769 -0.0006994821 -0.0011900245 -0.0006704542 -0.0012052239 -0.0006398247 -0.0012184741 -0.0006077467 -0.0012295918 -0.0005744046 -0.0012384170 -0.0005400120 -0.0012448187 -0.0005048076 -0.0012486996 -0.0004690502 -0.0012500000 -0.0004330127 -0.0012486996 -0.0003969752 -0.0012448187 -0.0003612178 -0.0012384170 -0.0003260134 -0.0012295918 -0.0002916208 -0.0012184741 -0.0002582787 -0.0012052239 -0.0002262007 -0.0011900245 -0.0001955712 -0.0011730769 -0.0001665433 -0.0011545936 -0.0001392373 -0.0011347926 -0.0001137407 -0.0011138920 -0.0000901095 -0.0010921053 -0.0000683704 -0.0010696371 -0.0000485233 -0.0010466805 -0.0000305445 -0.0010234139 -0.0000143902 -0.0010000000 -0.0000000000 -0.0009502075 0.0000251543 -0.0009231590 0.0000360459 -0.0008947368 0.0000455803 -0.0008650169 0.0000535786 -0.0008341014 0.0000598635 -0.0008021201 0.0000642634 -0.0007692308 0.0000666173 -0.0007356181 0.0000667804 -0.0007014925 0.0000646288 -0.0006670870 0.0000600648 -0.0006326531 0.0000530220 -0.0005984556 0.0000434685 -0.0005647668 0.0000314102 -0.0005318596 0.0000168926 -0.0005000000 -0.0000000000 -0.0004694408 -0.0000191449 -0.0004404145 -0.0000403846 -0.0004131274 -0.0000635308 -0.0003877551 -0.0000883699 -0.0003644388 -0.0001146692 -0.0003432836 -0.0001421833 -0.0003243574 -0.0001706611 -0.0003076923 -0.0001998520 -0.0002932862 -0.0002295120 -0.0002811060 -0.0002594085 -0.0002710911 -0.0002893246 -0.0002631579 -0.0003190620 -0.0002572038 -0.0003484435 -0.0002531120 -0.0003773140 -0.0002507553 -0.0004055406 -0.0002500000 -0.0004330127 "  style = " stroke-width: 0.0001800000;stroke: #000000; fill: none; " />
<g id = "ComplexString2d_1" style = " fill-rule: evenodd; stroke-width: 0.0000000000;stroke: #ffffff; fill: #ffffff; " >
<path d="M 0.0012500000 -0.0004330127 L 0.0012468880 -0.0004887114 L 0.0012427962 -0.0005175819 L 0.0012368421 -0.0005469634 L 0.0012289089 -0.0005767008 L 0.0012188940 -0.0006066169 L 0.0012067138 -0.0006365134 L 0.0011923077 -0.0006661734 L 0.0011756426 -0.0006953643 L 0.0011567164 -0.0007238421 L 0.0011355612 -0.0007513562 L 0.0011122449 -0.0007776555 L 0.0010868726 -0.0008024946 L 0.0010595855 -0.0008256408 L 0.0010305592 -0.0008468805 L 0.0010000000 -0.0008660254 L 0.0009681404 -0.0008829180 L 0.0009352332 -0.0008974357 L 0.0009015444 -0.0009094939 L 0.0008673469 -0.0009190474 L 0.0008329130 -0.0009260902 L 0.0007985075 -0.0009306542 L 0.0007643819 -0.0009328058 L 0.0007307692 -0.0009326427 L 0.0006978799 -0.0009302888 L 0.0006658986 -0.0009258889 L 0.0006349831 -0.0009196040 L 0.0006052632 -0.0009116057 L 0.0005768410 -0.0009020713 L 0.0005497925 -0.0008911797 L 0.0005241692 -0.0008791074 L 0.0005000000 -0.0008660254 L 0.0004533195 -0.0008354809 L 0.0004303629 -0.0008175021 L 0.0004078947 -0.0007976550 L 0.0003861080 -0.0007759159 L 0.0003652074 -0.0007522847 L 0.0003454064 -0.0007267881 L 0.0003269231 -0.0006994821 L 0.0003099755 -0.0006704542 L 0.0002947761 -0.0006398247 L 0.0002815259 -0.0006077467 L 0.0002704082 -0.0005744046 L 0.0002615830 -0.0005400120 L 0.0002551813 -0.0005048076 L 0.0002513004 -0.0004690502 L 0.0002500000 -0.0004330127 L 0.0002513004 -0.0003969752 L 0.0002551813 -0.0003612178 L 0.0002615830 -0.0003260134 L 0.0002704082 -0.0002916208 L 0.0002815259 -0.0002582787 L 0.0002947761 -0.0002262007 L 0.0003099755 -0.0001955712 L 0.0003269231 -0.0001665433 L 0.0003454064 -0.0001392373 L 0.0003652074 -0.0001137407 L 0.0003861080 -0.0000901095 L 0.0004078947 -0.0000683704 L 0.0004303629 -0.0000485233 L 0.0004533195 -0.0000305445 L 0.0004765861 -0.0000143902 L 0.0005000000 -0.0000000000 L 0.0005497925 0.0000251543 L 0.0005768410 0.0000360459 L 0.0006052632 0.0000455803 L 0.0006349831 0.0000535786 L 0.0006658986 0.0000598635 L 0.0006978799 0.0000642634 L 0.0007307692 0.0000666173 L 0.0007643819 0.0000667804 L 0.0007985075 0.0000646288 L 0.0008329130 0.0000600648 L 0.0008673469 0.0000530220 L 0.0009015444 0.0000434685 L 0.0009352332 0.0000314102 L 0.0009681404 0.0000168926 L 0.0010000000 -0.0000000000 L 0.0010305592 -0.0000191449 L 0.0010595855 -0.0000403846 L 0.0010868726 -0.0000635308 L 0.0011122449 -0.0000883699 L 0.0011355612 -0.0001146692 L 0.0011567164 -0.0001421833 L 0.0011756426 -0.0001706611 L 0.0011923077 -0.0001998520 L 0.0012067138 -0.0002295120 L 0.0012188940 -0.0002594085 L 0.0012289089 -0.0002893246 L 0.0012368421 -0.0003190620 L 0.0012427962 -0.0003484435 L 0.0012468880 -0.0003773140 L 0.0012492447 -0.0004055406 L 0.0012500000 -0.0004330127 Z"/>
</g>
<polyline points= " 0.0012500000 -0.0004330127 0.0012468880 -0.0004887114 0.0012427962 -0.0005175819 0.0012368421 -0.0005469634 0.0012289089 -0.0005767008 0.0012188940 -0.0006066169 0.0012067138 -0.0006365134 0.0011923077 -0.0006661734 0.0011756426 -0.0006953643 0.0011567164 -0.0007238421 0.0011355612 -0.0007513562 0.0011122449 -0.0007776555 0.0010868726 -0.0008024946 0.0010595855 -0.0008256408 0.0010305592 -0.0008468805 0.0010000000 -0.0008660254 0.0009681404 -0.0008829180 0.0009352332 -0.0008974357 0.0009015444 -0.0009094939 0.0008673469 -0.0009190474 0.0008329130 -0.0009260902 0.0007985075 -0.0009306542 0.0007643819 -0.0009328058 0.0007307692 -0.0009326427 0.0006978799 -0.0009302888 0.0006658986 -0.0009258889 0.0006349831 -0.0009196040 0.0006052632 -0.0009116057 0.0005768410 -0.0009020713 0.0005497925 -0.0008911797 0.0005241692 -0.0008791074 0.0005000000 -0.0008660254 0.0004533195 -0.0008354809 0.0004303629 -0.0008175021 0.0004078947 -0.0007976550 0.0003861080 -0.0007759159 0.0003652074 -0.0007522847 0.0003454064 -0.0007267881 0.0003269231 -0.0006994821 0.0003099755 -0.0006704542 0.0002947761 -0.0006398247 0.0002815259 -0.0006077467 0.0002704082 -0.0005744046 0.0002615830 -0.0005400120 0.0002551813 -0.0005048076 0.0002513004 -0.0004690502 0.0002500000 -0.0004330127 0.0002513004 -0.0003969752 0.0002551813 -0.0003612178 0.0002615830 -0.0003260134 0.0002704082 -0.0002916208 0.0002815259 -0.0002582787 0.0002947761 -0.0002262007 0.0003099755 -0.0001955712 0.0003269231 -0.0001665433 0.0003454064 -0.0001392373 0.0003652074 -0.0001137407 0.0003861080 -0.0000901095 0.0004078947 -0.0000683704 0.0004303629 -0.0000485233 0.0004533195 -0.0000305445 0.0004765861 -0.0000143902 0.0005000000 -0.0000000000 0.0005497925 0.0000251543 0.0005768410 0.0000360459 0.0006052632 0.0000455803 0.0006349831 0.0000535786 0.0006658986 0.0000598635 0.0006978799 0.0000642634 0.0007307692 0.0000666173 0.0007643819 0.0000667804 0.0007985075 0.0000646288 0.0008329130 0.0000600648 0.0008673469 0.0000530220 0.0009015444 0.0000434685 0.0009352332 0.0000314102 0.0009681404 0.0000168926 0.0010000000 -0.0000000000 0.0010305592 -0.0000191449 0.0010595855 -0.0000403846 0.0010868726 -0.0000635308 0.0011122449 -0.0000883699 0.0011355612 -0.0001146692 0.0011567164 -0.0001421833 0.0011756426 -0.0001706611 0.0011923077 -0.0001998520 0.0012067138 -0.0002295120 0.0012188940 -0.0002594085 0.0012289089 -0.0002893246 0.0012368421 -0.0003190620 0.0012427962 -0.0003484435 0.0012468880 -0.0003773140 0.0012492447 -0.0004055406 0.0012500000 -0.0004330127 "  style = " stroke-width: 0.0001800000;stroke: #000000; fill: none; " />
<g id = "ComplexString2d_2" style = " fill-rule: evenodd; stroke-width: 0.0000000000;stroke: #ffffff; fill: #ffffff; " >
<path d="M 0.0005000000 0.0008660254 L 0.0004968880 0.0008103267 L 0.0004927962 0.0007814562 L 0.0004868421 0.0007520747 L 0.0004789089 0.0007223373 L 0.0004688940 0.0006924212 L 0.0004567138 0.0006625247 L 0.0004423077 0.0006328647 L 0.0004256426 0.0006036738 L 0.0004067164 0.0005751960 L 0.0003855612 0.0005476819 L 0.0003622449 0.0005213826 L 0.0003368726 0.0004965435 L 0.0003095855 0.0004733973 L 0.0002805592 0.0004521576 L 0.0002500000 0.0004330127 L 0.0002181404 0.0004161201 L 0.0001852332 0.0004016025 L 0.0001515444 0.0003895442 L 0.0001173469 0.0003799907 L 0.0000829130 0.0003729479 L 0.0000485075 0.0003683839 L 0.0000143819 0.0003662323 L -0.0000192308 0.0003663954 L -0.0000521201 0.0003687493 L -0.0000841014 0.0003731492 L -0.0001150169 0.0003794341 L -0.0001447368 0.0003874324 L -0.0001731590 0.0003969668 L -0.0002002075 0.0004078584 L -0.0002258308 0.0004199307 L -0.0002500000 0.0004330127 L -0.0002966805 0.0004635572 L -0.0003196371 0.0004815360 L -0.0003421053 0.0005013831 L -0.0003638920 0.0005231222 L -0.0003847926 0.0005467534 L -0.0004045936 0.0005722500 L -0.0004230769 0.0005995560 L -0.0004400245 0.0006285839 L -0.0004552239 0.0006592134 L -0.0004684741 0.0006912914 L -0.0004795918 0.0007246335 L -0.0004884170 0.0007590261 L -0.0004948187 0.0007942306 L -0.0004986996 0.0008299879 L -0.0005000000 0.0008660254 L -0.0004986996 0.0009020629 L -0.0004948187 0.0009378203 L -0.0004884170 0.0009730247 L -0.0004795918 0.0010074173 L -0.0004684741 0.0010407594 L -0.0004552239 0.0010728374 L -0.0004400245 0.0011034669 L -0.0004230769 0.0011324948 L -0.0004045936 0.0011598008 L -0.0003847926 0.0011852974 L -0.0003638920 0.0012089286 L -0.0003421053 0.0012306677 L -0.0003196371 0.0012505148 L -0.0002966805 0.0012684936 L -0.0002734139 0.0012846480 L -0.0002500000 0.0012990381 L -0.0002002075 0.0013241924 L -0.0001731590 0.0013350840 L -0.0001447368 0.0013446184 L -0.0001150169 0.0013526167 L -0.0000841014 0.0013589016 L -0.0000521201 0.0013633015 L -0.0000192308 0.0013656554 L 0.0000143819 0.0013658185 L 0.0000485075 0.0013636669 L 0.0000829130 0.0013591029 L 0.0001173469 0.0013520601 L 0.0001515444 0.0013425066 L 0.0001852332 0.0013304484 L 0.0002181404 0.0013159307 L 0.0002500000 0.0012990381 L 0.0002805592 0.0012798932 L 0.0003095855 0.0012586535 L 0.0003368726 0.0012355073 L 0.0003622449 0.0012106682 L 0.0003855612 0.0011843689 L 0.0004067164 0.0011568548 L 0.0004256426 0.0011283770 L 0.0004423077 0.0010991861 L 0.0004567138 0.0010695261 L 0.0004688940 0.0010396296 L 0.0004789089 0.0010097135 L 0.0004868421 0.0009799761 L 0.0004927962 0.0009505946 L 0.0004968880 0.0009217241 L 0.0004992447 0.0008934975 L 0.0005000000 0.0008660254 Z"/>
</g>
<polyline points= " 0.0005000000 0.0008660254 0.0004968880 0.0008103267 0.0004927962 0.0007814562 0.0004868421 0.0007520747 0.0004789089 0.0007223373 0.0004688940 0.0006924212 0.0004567138 0.0006625247 0.0004423077 0.0006328647 0.0004256426 0.0006036738 0.0004067164 0.0005751960 0.0003855612 0.0005476819 0.0003622449 0.0005213826 0.0003368726 0.0004965435 0.0003095855 0.0004733973 0.0002805592 0.0004521576 0.0002500000 0.0004330127 0.0002181404 0.0004161201 0.0001852332 0.0004016025 0.0001515444 0.0003895442 0.0001173469 0.0003799907 0.0000829130 0.0003729479 0.0000485075 0.0003683839 0.0000143819 0.0003662323 -0.0000192308 0.0003663954 -0.0000521201 0.0003687493 -0.0000841014 0.0003731492 -0.0001150169 0.0003794341 -0.0001447368 0.0003874324 -0.0001731590 0.0003969668 -0.0002002075 0.0004078584 -0.0002258308 0.0004199307 -0.0002500000 0.0004330127 -0.0002966805 0.0004635572 -0.0003196371 0.0004815360 -0.0003421053 0.0005013831 -0.0003638920 0.0005231222 -0.0003847926 0.0005467534 -0.0004045936 0.0005722500 -0.0004230769 0.0005995560 -0.0004400245 0.0006285839 -0.0004552239 0.0006592134 -0.0004684741 0.0006912914 -0.0004795918 0.0007246335 -0.0004884170 0.0007590261 -0.0004948187 0.0007942306 -0.0004986996 0.0008299879 -0.0005000000 0.0008660254 -0.0004986996 0.0009020629 -0.0004948187 0.0009378203 -0.0004884170 0.0009730247 -0.0004795918 0.0010074173 -0.0004684741 0.0010407594 -0.0004552239 0.0010728374 -0.0004400245 0.0011034669 -0.0004230769 0.0011324948 -0.0004045936 0.0011598008 -0.0003847926 0.0011852974 -0.0003638920 0.0012089286 -0.0003421053 0.0012306677 -0.0003196371 0.0012505148 -0.0002966805 0.0012684936 -0.0002734139 0.0012846480 -0.0002500000 0.0012990381 -0.0002002075 0.0013241924 -0.0001731590 0.0013350840 -0.0001447368 0.0013446184 -0.0001150169 0.0013526167 -0.0000841014 0.0013589016 -0.0000521201 0.0013633015 -0.0000192308 0.0013656554 0.0000143819 0.0013658185 0.0000485075 0.0013636669 0.0000829130 0.0013591029 0.0001173469 0.0013520601 0.0001515444 0.0013425066 0.0001852332 0.0013304484 0.0002181404 0.0013159307 0.0002500000 0.0012990381 0.0002805592 0.0012798932 0.0003095855 0.0012586535 0.0003368726 0.0012355073 0.0003622449 0.0012106682 0.0003855612 0.0011843689 0.0004067164 0.0011568548 0.0004256426 0.0011283770 0.0004423077 0.0010991861 0.0004567138 0.0010695261 0.0004688940 0.0010396296 0.0004789089 0.0010097135 0.0004868421 0.0009799761 0.0004927962 0.0009505946 0.0004968880 0.0009217241 0.0004992447 0.0008934975 0.0005000000 0.0008660254 "  style = " stroke-width: 0.0001800000;stroke: #000000; fill: none; " />
</symbol>
</svg>