<svg xmlns="http://www.w3.org/2000/svg">
<symbol id="PlacGierZabaw" viewBox="-0.00339999212883412840 -0.00149989721830934290 0.00680000055581331250 0.00449998292606323960" style="stroke-linejoin:round">
<path d= "M -0.0003999918 0.0000001029 L -0.0004022577 -0.0000823135 -0.0004093279 -0.0001669933 -0.0004216034 -0.0002536047 -0.0004394655 -0.0003417493 -0.0004632652 -0.0004309615 -0.0004933098 -0.0005207097 -0.0005298505 -0.0006103992 -0.0005730687 -0.0006993792 -0.0006230640 -0.0007869521 -0.0006506089 -0.0008299829 -0.0006798426 -0.0008723854 -0.0007107497 -0.0009140652 -0.0007433083 -0.0009549277 -0.0007774894 -0.0009948788 -0.0008132571 -0.0010338254 -0.0008505686 -0.0010716764 -0.0008893741 -0.0011083428 -0.0009296173 -0.0011437386 -0.0009712353 -0.0011777814 -0.0010141593 -0.0012103932 -0.0010583143 -0.0012415005 -0.0011036202 -0.0012710353 -0.0011499918 -0.0012989353 -0.0011973397 -0.0013251443 -0.0012455705 -0.0013496129 -0.0012945877 -0.0013722986 -0.0013442923 -0.0013931660 -0.0013945834 -0.0014121869 -0.0014453586 -0.0014293406 -0.0014965154 -0.0014446140 -0.0015479510 -0.0014580011 -0.0015995637 -0.0014695035 -0.0016512529 -0.0014791297 -0.0017029201 -0.0014868950 -0.0017544694 -0.0014928215 -0.0018058079 -0.0014969374 -0.0018568462 -0.0014992765 -0.0019074986 -0.0014998784 -0.0019576841 -0.0014987873 -0.0020563522 -0.0014917254 -0.0021522960 -0.0014785258 -0.0022450424 -0.0014596711 -0.0023342024 -0.0014356761 -0.0024194689 -0.0014070729 -0.0025006142 -0.0013743980 -0.0025774843 -0.0013381811 -0.0026499918 -0.0012989353 -0.0027202335 -0.0012557648 -0.0027900333 -0.0012073019 -0.0028589032 -0.0011533653 -0.0029263076 -0.0010938240 -0.0029916679 -0.0010286067 -0.0030543697 -0.0009577133 -0.0031137727 -0.0008812234 -0.0031692226 -0.0007993052 -0.0032200653 -0.0007122216 -0.0032435586 -0.0006668516 -0.0032656635 -0.0006203333 -0.0032863056 -0.0005727270 -0.0033054143 -0.0005240992 -0.0033229224 -0.0004745219 -0.0033387673 -0.0004240729 -0.0033528915 -0.0003728347 -0.0033652428 -0.0003208950 -0.0033757748 -0.0002683454 -0.0033844478 -0.0002152817 -0.0033912284 -0.0001618026 -0.0033960907 -0.0001080095 -0.0033990156 -0.0000540061 -0.0033999918 0.0000001029 -0.0033990156 0.0000542118 -0.0033960907 0.0001082153 -0.0033912284 0.0001620083 -0.0033844478 0.0002154874 -0.0033757748 0.0002685512 -0.0033652428 0.0003211007 -0.0033528915 0.0003730404 -0.0033387673 0.0004242786 -0.0033229224 0.0004747276 -0.0033054143 0.0005243049 -0.0032863056 0.0005729327 -0.0032656635 0.0006205390 -0.0032435586 0.0006670573 -0.0032200653 0.0007124273 -0.0031952603 0.0007565946 -0.0031692226 0.0007995109 -0.0031137727 0.0008814291 -0.0030543697 0.0009579190 -0.0029916679 0.0010288124 -0.0029263076 0.0010940297 -0.0028589032 0.0011535711 -0.0027900333 0.0012075076 -0.0027202335 0.0012559705 -0.0026499918 0.0012991410 -0.0025774843 0.0013383868 -0.0025006142 0.0013746038 -0.0024194689 0.0014072786 -0.0023342024 0.0014358818 -0.0022450424 0.0014598768 -0.0021522960 0.0014787315 -0.0020563522 0.0014919311 -0.0019576841 0.0014989930 -0.0018568462 0.0014994822 -0.0018058079 0.0014971431 -0.0017544694 0.0014930272 -0.0017029201 0.0014871007 -0.0016512529 0.0014793354 -0.0015995637 0.0014697092 -0.0015479510 0.0014582069 -0.0014965154 0.0014448197 -0.0014453586 0.0014295463 -0.0013945834 0.0014123926 -0.0013442923 0.0013933717 -0.0012945877 0.0013725044 -0.0012455705 0.0013498187 -0.0011973397 0.0013253500 -0.0011499918 0.0012991410 -0.0011036202 0.0012712410 -0.0010583143 0.0012417062 -0.0010141593 0.0012105989 -0.0009712353 0.0011779871 -0.0009296173 0.0011439443 -0.0008893741 0.0011085485 -0.0008505686 0.0010718821 -0.0008132571 0.0010340311 -0.0007774894 0.0009950845 -0.0007433083 0.0009551334 -0.0007107497 0.0009142709 -0.0006798426 0.0008725911 -0.0006506089 0.0008301886 -0.0006230640 0.0007871578 -0.0005972166 0.0007435924 -0.0005730687 0.0006995849 -0.0005298505 0.0006106049 -0.0004933098 0.0005209154 -0.0004632652 0.0004311672 -0.0004394655 0.0003419550 -0.0004216034 0.0002538104 -0.0004093279 0.0001671990 -0.0004022577 0.0000825192 -0.0003999918 0.0000001029 "
stroke-width="0.0001800000" stroke="param(outline)" fill="none"/>
<path d= "M 0.0034000082 0.0000001029 L 0.0033977423 -0.0000823135 0.0033906721 -0.0001669933 0.0033783966 -0.0002536047 0.0033605345 -0.0003417493 0.0033367348 -0.0004309615 0.0033066902 -0.0005207097 0.0032701495 -0.0006103992 0.0032269313 -0.0006993792 0.0031769360 -0.0007869521 0.0031493911 -0.0008299829 0.0031201574 -0.0008723854 0.0030892503 -0.0009140652 0.0030566917 -0.0009549277 0.0030225106 -0.0009948788 0.0029867429 -0.0010338254 0.0029494314 -0.0010716764 0.0029106259 -0.0011083428 0.0028703827 -0.0011437386 0.0028287647 -0.0011777814 0.0027858407 -0.0012103932 0.0027416857 -0.0012415005 0.0026963798 -0.0012710353 0.0026500082 -0.0012989353 0.0026026603 -0.0013251443 0.0025544295 -0.0013496129 0.0025054123 -0.0013722986 0.0024557077 -0.0013931660 0.0024054166 -0.0014121869 0.0023546414 -0.0014293406 0.0023034846 -0.0014446140 0.0022520490 -0.0014580011 0.0022004363 -0.0014695035 0.0021487471 -0.0014791297 0.0020970799 -0.0014868950 0.0020455306 -0.0014928215 0.0019941921 -0.0014969374 0.0019431538 -0.0014992765 0.0018925014 -0.0014998784 0.0018423159 -0.0014987873 0.0017436478 -0.0014917254 0.0016477040 -0.0014785258 0.0015549576 -0.0014596711 0.0014657976 -0.0014356761 0.0013805311 -0.0014070729 0.0012993858 -0.0013743980 0.0012225157 -0.0013381811 0.0011500082 -0.0012989353 0.0010797665 -0.0012557648 0.0010099667 -0.0012073019 0.0009410968 -0.0011533653 0.0008736924 -0.0010938240 0.0008083321 -0.0010286067 0.0007456303 -0.0009577133 0.0006862273 -0.0008812234 0.0006307774 -0.0007993052 0.0005799347 -0.0007122216 0.0005564414 -0.0006668516 0.0005343365 -0.0006203333 0.0005136944 -0.0005727270 0.0004945857 -0.0005240992 0.0004770776 -0.0004745219 0.0004612327 -0.0004240729 0.0004471085 -0.0003728347 0.0004347572 -0.0003208950 0.0004242252 -0.0002683454 0.0004155522 -0.0002152817 0.0004087716 -0.0001618026 0.0004039093 -0.0001080095 0.0004009844 -0.0000540061 0.0004000082 0.0000001029 0.0004009844 0.0000542118 0.0004039093 0.0001082153 0.0004087716 0.0001620083 0.0004155522 0.0002154874 0.0004242252 0.0002685512 0.0004347572 0.0003211007 0.0004471085 0.0003730404 0.0004612327 0.0004242786 0.0004770776 0.0004747276 0.0004945857 0.0005243049 0.0005136944 0.0005729327 0.0005343365 0.0006205390 0.0005564414 0.0006670573 0.0005799347 0.0007124273 0.0006047397 0.0007565946 0.0006307774 0.0007995109 0.0006862273 0.0008814291 0.0007456303 0.0009579190 0.0008083321 0.0010288124 0.0008736924 0.0010940297 0.0009410968 0.0011535711 0.0010099667 0.0012075076 0.0010797665 0.0012559705 0.0011500082 0.0012991410 0.0012225157 0.0013383868 0.0012993858 0.0013746038 0.0013805311 0.0014072786 0.0014657976 0.0014358818 0.0015549576 0.0014598768 0.0016477040 0.0014787315 0.0017436478 0.0014919311 0.0018423159 0.0014989930 0.0019431538 0.0014994822 0.0019941921 0.0014971431 0.0020455306 0.0014930272 0.0020970799 0.0014871007 0.0021487471 0.0014793354 0.0022004363 0.0014697092 0.0022520490 0.0014582069 0.0023034846 0.0014448197 0.0023546414 0.0014295463 0.0024054166 0.0014123926 0.0024557077 0.0013933717 0.0025054123 0.0013725044 0.0025544295 0.0013498187 0.0026026603 0.0013253500 0.0026500082 0.0012991410 0.0026963798 0.0012712410 0.0027416857 0.0012417062 0.0027858407 0.0012105989 0.0028287647 0.0011779871 0.0028703827 0.0011439443 0.0029106259 0.0011085485 0.0029494314 0.0010718821 0.0029867429 0.0010340311 0.0030225106 0.0009950845 0.0030566917 0.0009551334 0.0030892503 0.0009142709 0.0031201574 0.0008725911 0.0031493911 0.0008301886 0.0031769360 0.0007871578 0.0032027834 0.0007435924 0.0032269313 0.0006995849 0.0032701495 0.0006106049 0.0033066902 0.0005209154 0.0033367348 0.0004311672 0.0033605345 0.0003419550 0.0033783966 0.0002538104 0.0033906721 0.0001671990 0.0033977423 0.0000825192 0.0034000082 0.0000001029 "
stroke-width="0.0001800000" stroke="param(outline)" fill="none"/>
<path d= "M 0.0015000000 0.0015000855 L 0.0014977341 0.0014176692 0.0014906639 0.0013329893 0.0014783885 0.0012463779 0.0014605263 0.0011582334 0.0014367267 0.0010690211 0.0014066820 0.0009792730 0.0013701413 0.0008895835 0.0013269231 0.0008006034 0.0012769278 0.0007130306 0.0012493829 0.0006699997 0.0012201493 0.0006275972 0.0011892421 0.0005859174 0.0011566835 0.0005450550 0.0011225024 0.0005051039 0.0010867347 0.0004661572 0.0010494233 0.0004283062 0.0010106178 0.0003916399 0.0009703746 0.0003562441 0.0009287565 0.0003222012 0.0008858325 0.0002895894 0.0008416775 0.0002584821 0.0007963716 0.0002289473 0.0007500000 0.0002010474 0.0007026521 0.0001748384 0.0006544213 0.0001503697 0.0006054041 0.0001276840 0.0005556995 0.0001068166 0.0005054085 0.0000877958 0.0004546332 0.0000706420 0.0004034764 0.0000553687 0.0003520408 0.0000419815 0.0003004282 0.0000304791 0.0002487390 0.0000208529 0.0001970717 0.0000130876 0.0001455224 0.0000071611 0.0000941839 0.0000030453 0.0000431457 0.0000007061 -0.0000075068 0.0000001043 -0.0000576923 0.0000011954 -0.0001563604 0.0000082573 -0.0002523041 0.0000214569 -0.0003450506 0.0000403115 -0.0004342105 0.0000643065 -0.0005194771 0.0000929097 -0.0006006224 0.0001255846 -0.0006774924 0.0001618015 -0.0007500000 0.0002010474 -0.0008202417 0.0002442178 -0.0008900415 0.0002926808 -0.0009589114 0.0003466173 -0.0010263158 0.0004061587 -0.0010916760 0.0004713759 -0.0011543779 0.0005422694 -0.0012137809 0.0006187593 -0.0012692308 0.0007006774 -0.0013200734 0.0007877611 -0.0013435668 0.0008331310 -0.0013656716 0.0008796494 -0.0013863138 0.0009272557 -0.0014054224 0.0009758835 -0.0014229305 0.0010254607 -0.0014387755 0.0010759098 -0.0014528997 0.0011271479 -0.0014652510 0.0011790877 -0.0014757830 0.0012316372 -0.0014844560 0.0012847009 -0.0014912366 0.0013381801 -0.0014960988 0.0013919731 -0.0014990238 0.0014459765 -0.0015000000 0.0015000855 -0.0014990238 0.0015541945 -0.0014960988 0.0016081979 -0.0014912366 0.0016619909 -0.0014844560 0.0017154701 -0.0014757830 0.0017685338 -0.0014652510 0.0018210833 -0.0014528997 0.0018730231 -0.0014387755 0.0019242612 -0.0014229305 0.0019747103 -0.0014054224 0.0020242875 -0.0013863138 0.0020729153 -0.0013656716 0.0021205216 -0.0013435668 0.0021670400 -0.0013200734 0.0022124099 -0.0012952684 0.0022565772 -0.0012692308 0.0022994936 -0.0012137809 0.0023814117 -0.0011543779 0.0024579016 -0.0010916760 0.0025287951 -0.0010263158 0.0025940123 -0.0009589114 0.0026535537 -0.0008900415 0.0027074902 -0.0008202417 0.0027559532 -0.0007500000 0.0027991236 -0.0006774924 0.0028383695 -0.0006006224 0.0028745864 -0.0005194771 0.0029072612 -0.0004342105 0.0029358645 -0.0003450506 0.0029598595 -0.0002523041 0.0029787141 -0.0001563604 0.0029919137 -0.0000576923 0.0029989756 0.0000431457 0.0029994649 0.0000941839 0.0029971257 0.0001455224 0.0029930099 0.0001970717 0.0029870834 0.0002487390 0.0029793180 0.0003004282 0.0029696919 0.0003520408 0.0029581895 0.0004034764 0.0029448023 0.0004546332 0.0029295290 0.0005054085 0.0029123752 0.0005556995 0.0028933543 0.0006054041 0.0028724870 0.0006544213 0.0028498013 0.0007026521 0.0028253326 0.0007500000 0.0027991236 0.0007963716 0.0027712237 0.0008416775 0.0027416889 0.0008858325 0.0027105816 0.0009287565 0.0026779698 0.0009703746 0.0026439269 0.0010106178 0.0026085311 0.0010494233 0.0025718648 0.0010867347 0.0025340138 0.0011225024 0.0024950671 0.0011566835 0.0024551160 0.0011892421 0.0024142536 0.0012201493 0.0023725738 0.0012493829 0.0023301712 0.0012769278 0.0022871404 0.0013027753 0.0022435750 0.0013269231 0.0021995676 0.0013701413 0.0021105875 0.0014066820 0.0020208980 0.0014367267 0.0019311499 0.0014605263 0.0018419376 0.0014783885 0.0017537930 0.0014906639 0.0016671817 0.0014977341 0.0015825018 0.0015000000 0.0015000855 "
stroke-width="0.0001800000" stroke="param(outline)" fill="none"/>
</symbol>
</svg>