<svg xmlns="http://www.w3.org/2000/svg">
<symbol id="PlacSportowy" viewBox="-0.00530000030994415280 -0.00300019537098705770 0.01060000061988830600 0.00449998292606323960" style="stroke-linejoin:round">
<polyline points= " -0.0023000000 -0.0015001952 -0.0023022659 -0.0015826116 -0.0023093361 -0.0016672914 -0.0023216115 -0.0017539028 -0.0023394737 -0.0018420474 -0.0023632733 -0.0019312596 -0.0023933180 -0.0020210078 -0.0024298587 -0.0021106973 -0.0024730769 -0.0021996773 -0.0025230722 -0.0022872502 -0.0025506171 -0.0023302810 -0.0025798507 -0.0023726835 -0.0026107579 -0.0024143633 -0.0026433165 -0.0024552258 -0.0026774976 -0.0024951769 -0.0027132653 -0.0025341235 -0.0027505767 -0.0025719745 -0.0027893822 -0.0026086409 -0.0028296254 -0.0026440367 -0.0028712435 -0.0026780795 -0.0029141675 -0.0027106913 -0.0029583225 -0.0027417986 -0.0030036284 -0.0027713334 -0.0030500000 -0.0027992333 -0.0030973479 -0.0028254424 -0.0031455787 -0.0028499110 -0.0031945959 -0.0028725967 -0.0032443005 -0.0028934641 -0.0032945915 -0.0029124850 -0.0033453668 -0.0029296387 -0.0033965236 -0.0029449121 -0.0034479592 -0.0029582992 -0.0034995718 -0.0029698016 -0.0035512610 -0.0029794278 -0.0036029283 -0.0029871931 -0.0036544776 -0.0029931196 -0.0037058161 -0.0029972355 -0.0037568543 -0.0029995746 -0.0038075068 -0.0030001765 -0.0038576923 -0.0029990854 -0.0039563604 -0.0029920235 -0.0040523041 -0.0029788239 -0.0041450506 -0.0029599692 -0.0042342105 -0.0029359742 -0.0043194771 -0.0029073710 -0.0044006224 -0.0028746961 -0.0044774924 -0.0028384792 -0.0045500000 -0.0027992333 -0.0046202417 -0.0027560629 -0.0046900415 -0.0027076000 -0.0047589114 -0.0026536634 -0.0048263158 -0.0025941221 -0.0048916760 -0.0025289048 -0.0049543779 -0.0024580114 -0.0050137809 -0.0023815214 -0.0050692308 -0.0022996033 -0.0051200734 -0.0022125197 -0.0051435668 -0.0021671497 -0.0051656716 -0.0021206314 -0.0051863138 -0.0020730251 -0.0052054224 -0.0020243973 -0.0052229305 -0.0019748200 -0.0052387755 -0.0019243710 -0.0052528997 -0.0018731328 -0.0052652510 -0.0018211931 -0.0052757830 -0.0017686435 -0.0052844560 -0.0017155798 -0.0052912366 -0.0016621007 -0.0052960988 -0.0016083076 -0.0052990238 -0.0015543042 -0.0053000000 -0.0015001952 -0.0052990238 -0.0014460863 -0.0052960988 -0.0013920828 -0.0052912366 -0.0013382898 -0.0052844560 -0.0012848107 -0.0052757830 -0.0012317469 -0.0052652510 -0.0011791974 -0.0052528997 -0.0011272577 -0.0052387755 -0.0010760195 -0.0052229305 -0.0010255705 -0.0052054224 -0.0009759932 -0.0051863138 -0.0009273654 -0.0051656716 -0.0008797591 -0.0051435668 -0.0008332408 -0.0051200734 -0.0007878708 -0.0050952684 -0.0007437035 -0.0050692308 -0.0007007872 -0.0050137809 -0.0006188690 -0.0049543779 -0.0005423791 -0.0048916760 -0.0004714857 -0.0048263158 -0.0004062684 -0.0047589114 -0.0003467270 -0.0046900415 -0.0002927905 -0.0046202417 -0.0002443276 -0.0045500000 -0.0002011571 -0.0044774924 -0.0001619113 -0.0044006224 -0.0001256943 -0.0043194771 -0.0000930195 -0.0042342105 -0.0000644163 -0.0041450506 -0.0000404213 -0.0040523041 -0.0000215666 -0.0039563604 -0.0000083670 -0.0038576923 -0.0000013051 -0.0037568543 -0.0000008159 -0.0037058161 -0.0000031550 -0.0036544776 -0.0000072709 -0.0036029283 -0.0000131973 -0.0035512610 -0.0000209627 -0.0034995718 -0.0000305889 -0.0034479592 -0.0000420912 -0.0033965236 -0.0000554784 -0.0033453668 -0.0000707518 -0.0032945915 -0.0000879055 -0.0032443005 -0.0001069264 -0.0031945959 -0.0001277937 -0.0031455787 -0.0001504794 -0.0030973479 -0.0001749481 -0.0030500000 -0.0002011571 -0.0030036284 -0.0002290571 -0.0029583225 -0.0002585919 -0.0029141675 -0.0002896992 -0.0028712435 -0.0003223110 -0.0028296254 -0.0003563538 -0.0027893822 -0.0003917496 -0.0027505767 -0.0004284160 -0.0027132653 -0.0004662670 -0.0026774976 -0.0005052136 -0.0026433165 -0.0005451647 -0.0026107579 -0.0005860272 -0.0025798507 -0.0006277070 -0.0025506171 -0.0006701095 -0.0025230722 -0.0007131403 -0.0024972247 -0.0007567057 -0.0024730769 -0.0008007132 -0.0024298587 -0.0008896932 -0.0023933180 -0.0009793827 -0.0023632733 -0.0010691309 -0.0023394737 -0.0011583431 -0.0023216115 -0.0012464877 -0.0023093361 -0.0013330991 -0.0023022659 -0.0014177789 -0.0023000000 -0.0015001952 "
stroke-width="0.0001800000" stroke="param(outline)" fill="none"/>
<polyline points= " 0.0015000000 -0.0015001952 0.0014977341 -0.0015826116 0.0014906639 -0.0016672914 0.0014783885 -0.0017539028 0.0014605263 -0.0018420474 0.0014367267 -0.0019312596 0.0014066820 -0.0020210078 0.0013701413 -0.0021106973 0.0013269231 -0.0021996773 0.0012769278 -0.0022872502 0.0012493829 -0.0023302810 0.0012201493 -0.0023726835 0.0011892421 -0.0024143633 0.0011566835 -0.0024552258 0.0011225024 -0.0024951769 0.0010867347 -0.0025341235 0.0010494233 -0.0025719745 0.0010106178 -0.0026086409 0.0009703746 -0.0026440367 0.0009287565 -0.0026780795 0.0008858325 -0.0027106913 0.0008416775 -0.0027417986 0.0007963716 -0.0027713334 0.0007500000 -0.0027992333 0.0007026521 -0.0028254424 0.0006544213 -0.0028499110 0.0006054041 -0.0028725967 0.0005556995 -0.0028934641 0.0005054085 -0.0029124850 0.0004546332 -0.0029296387 0.0004034764 -0.0029449121 0.0003520408 -0.0029582992 0.0003004282 -0.0029698016 0.0002487390 -0.0029794278 0.0001970717 -0.0029871931 0.0001455224 -0.0029931196 0.0000941839 -0.0029972355 0.0000431457 -0.0029995746 -0.0000075068 -0.0030001765 -0.0000576923 -0.0029990854 -0.0001563604 -0.0029920235 -0.0002523041 -0.0029788239 -0.0003450506 -0.0029599692 -0.0004342105 -0.0029359742 -0.0005194771 -0.0029073710 -0.0006006224 -0.0028746961 -0.0006774924 -0.0028384792 -0.0007500000 -0.0027992333 -0.0008202417 -0.0027560629 -0.0008900415 -0.0027076000 -0.0009589114 -0.0026536634 -0.0010263158 -0.0025941221 -0.0010916760 -0.0025289048 -0.0011543779 -0.0024580114 -0.0012137809 -0.0023815214 -0.0012692308 -0.0022996033 -0.0013200734 -0.0022125197 -0.0013435668 -0.0021671497 -0.0013656716 -0.0021206314 -0.0013863138 -0.0020730251 -0.0014054224 -0.0020243973 -0.0014229305 -0.0019748200 -0.0014387755 -0.0019243710 -0.0014528997 -0.0018731328 -0.0014652510 -0.0018211931 -0.0014757830 -0.0017686435 -0.0014844560 -0.0017155798 -0.0014912366 -0.0016621007 -0.0014960988 -0.0016083076 -0.0014990238 -0.0015543042 -0.0015000000 -0.0015001952 -0.0014990238 -0.0014460863 -0.0014960988 -0.0013920828 -0.0014912366 -0.0013382898 -0.0014844560 -0.0012848107 -0.0014757830 -0.0012317469 -0.0014652510 -0.0011791974 -0.0014528997 -0.0011272577 -0.0014387755 -0.0010760195 -0.0014229305 -0.0010255705 -0.0014054224 -0.0009759932 -0.0013863138 -0.0009273654 -0.0013656716 -0.0008797591 -0.0013435668 -0.0008332408 -0.0013200734 -0.0007878708 -0.0012952684 -0.0007437035 -0.0012692308 -0.0007007872 -0.0012137809 -0.0006188690 -0.0011543779 -0.0005423791 -0.0010916760 -0.0004714857 -0.0010263158 -0.0004062684 -0.0009589114 -0.0003467270 -0.0008900415 -0.0002927905 -0.0008202417 -0.0002443276 -0.0007500000 -0.0002011571 -0.0006774924 -0.0001619113 -0.0006006224 -0.0001256943 -0.0005194771 -0.0000930195 -0.0004342105 -0.0000644163 -0.0003450506 -0.0000404213 -0.0002523041 -0.0000215666 -0.0001563604 -0.0000083670 -0.0000576923 -0.0000013051 0.0000431457 -0.0000008159 0.0000941839 -0.0000031550 0.0001455224 -0.0000072709 0.0001970717 -0.0000131973 0.0002487390 -0.0000209627 0.0003004282 -0.0000305889 0.0003520408 -0.0000420912 0.0004034764 -0.0000554784 0.0004546332 -0.0000707518 0.0005054085 -0.0000879055 0.0005556995 -0.0001069264 0.0006054041 -0.0001277937 0.0006544213 -0.0001504794 0.0007026521 -0.0001749481 0.0007500000 -0.0002011571 0.0007963716 -0.0002290571 0.0008416775 -0.0002585919 0.0008858325 -0.0002896992 0.0009287565 -0.0003223110 0.0009703746 -0.0003563538 0.0010106178 -0.0003917496 0.0010494233 -0.0004284160 0.0010867347 -0.0004662670 0.0011225024 -0.0005052136 0.0011566835 -0.0005451647 0.0011892421 -0.0005860272 0.0012201493 -0.0006277070 0.0012493829 -0.0006701095 0.0012769278 -0.0007131403 0.0013027753 -0.0007567057 0.0013269231 -0.0008007132 0.0013701413 -0.0008896932 0.0014066820 -0.0009793827 0.0014367267 -0.0010691309 0.0014605263 -0.0011583431 0.0014783885 -0.0012464877 0.0014906639 -0.0013330991 0.0014977341 -0.0014177789 0.0015000000 -0.0015001952 "
stroke-width="0.0001800000" stroke="param(outline)" fill="none"/>
<polyline points= " -0.0004000082 -0.0000002126 -0.0004022740 -0.0000826289 -0.0004093443 -0.0001673088 -0.0004216197 -0.0002539202 -0.0004394819 -0.0003420647 -0.0004632815 -0.0004312770 -0.0004933261 -0.0005210251 -0.0005298668 -0.0006107146 -0.0005730851 -0.0006996947 -0.0006230804 -0.0007872675 -0.0006506253 -0.0008302984 -0.0006798589 -0.0008727009 -0.0007107661 -0.0009143807 -0.0007433247 -0.0009552431 -0.0007775058 -0.0009951942 -0.0008132735 -0.0010341409 -0.0008505849 -0.0010719919 -0.0008893904 -0.0011086582 -0.0009296336 -0.0011440540 -0.0009712517 -0.0011780969 -0.0010141757 -0.0012107087 -0.0010583307 -0.0012418160 -0.0011036366 -0.0012713508 -0.0011500082 -0.0012992507 -0.0011973560 -0.0013254597 -0.0012455868 -0.0013499284 -0.0012946041 -0.0013726141 -0.0013443087 -0.0013934815 -0.0013945997 -0.0014125023 -0.0014453750 -0.0014296561 -0.0014965317 -0.0014449294 -0.0015479674 -0.0014583166 -0.0015995800 -0.0014698190 -0.0016512692 -0.0014794452 -0.0017029365 -0.0014872105 -0.0017544858 -0.0014931370 -0.0018058243 -0.0014972528 -0.0018568625 -0.0014995920 -0.0019075150 -0.0015001938 -0.0019577005 -0.0014991027 -0.0020563686 -0.0014920408 -0.0021523123 -0.0014788412 -0.0022450588 -0.0014599866 -0.0023342187 -0.0014359916 -0.0024194852 -0.0014073884 -0.0025006306 -0.0013747135 -0.0025775006 -0.0013384966 -0.0026500082 -0.0012992507 -0.0027202499 -0.0012560803 -0.0027900497 -0.0012076173 -0.0028589196 -0.0011536808 -0.0029263240 -0.0010941394 -0.0029916842 -0.0010289222 -0.0030543861 -0.0009580287 -0.0031137891 -0.0008815388 -0.0031692389 -0.0007996207 -0.0032200816 -0.0007125370 -0.0032435750 -0.0006671671 -0.0032656798 -0.0006206487 -0.0032863220 -0.0005730424 -0.0033054306 -0.0005244146 -0.0033229387 -0.0004748374 -0.0033387837 -0.0004243883 -0.0033529079 -0.0003731502 -0.0033652591 -0.0003212104 -0.0033757912 -0.0002686609 -0.0033844641 -0.0002155972 -0.0033912448 -0.0001621180 -0.0033961070 -0.0001083250 -0.0033990319 -0.0000543216 -0.0034000082 -0.0000002126 -0.0033990319 0.0000538964 -0.0033961070 0.0001078998 -0.0033912448 0.0001616928 -0.0033844641 0.0002151720 -0.0033757912 0.0002682357 -0.0033652591 0.0003207852 -0.0033529079 0.0003727250 -0.0033387837 0.0004239631 -0.0033229387 0.0004744122 -0.0033054306 0.0005239894 -0.0032863220 0.0005726172 -0.0032656798 0.0006202235 -0.0032435750 0.0006667419 -0.0032200816 0.0007121118 -0.0031952766 0.0007562791 -0.0031692389 0.0007991955 -0.0031137891 0.0008811136 -0.0030543861 0.0009576035 -0.0029916842 0.0010284970 -0.0029263240 0.0010937142 -0.0028589196 0.0011532556 -0.0027900497 0.0012071921 -0.0027202499 0.0012556551 -0.0026500082 0.0012988255 -0.0025775006 0.0013380714 -0.0025006306 0.0013742883 -0.0024194852 0.0014069631 -0.0023342187 0.0014355664 -0.0022450588 0.0014595614 -0.0021523123 0.0014784160 -0.0020563686 0.0014916156 -0.0019577005 0.0014986775 -0.0018568625 0.0014991668 -0.0018058243 0.0014968276 -0.0017544858 0.0014927118 -0.0017029365 0.0014867853 -0.0016512692 0.0014790199 -0.0015995800 0.0014693938 -0.0015479674 0.0014578914 -0.0014965317 0.0014445042 -0.0014453750 0.0014292309 -0.0013945997 0.0014120771 -0.0013443087 0.0013930562 -0.0012946041 0.0013721889 -0.0012455868 0.0013495032 -0.0011973560 0.0013250345 -0.0011500082 0.0012988255 -0.0011036366 0.0012709256 -0.0010583307 0.0012413908 -0.0010141757 0.0012102835 -0.0009712517 0.0011776717 -0.0009296336 0.0011436288 -0.0008893904 0.0011082330 -0.0008505849 0.0010715667 -0.0008132735 0.0010337157 -0.0007775058 0.0009947690 -0.0007433247 0.0009548179 -0.0007107661 0.0009139555 -0.0006798589 0.0008722757 -0.0006506253 0.0008298731 -0.0006230804 0.0007868423 -0.0005972329 0.0007432769 -0.0005730851 0.0006992695 -0.0005298668 0.0006102894 -0.0004933261 0.0005205999 -0.0004632815 0.0004308518 -0.0004394819 0.0003416395 -0.0004216197 0.0002534949 -0.0004093443 0.0001668836 -0.0004022740 0.0000822037 -0.0004000082 -0.0000002126 "
stroke-width="0.0001800000" stroke="param(outline)" fill="none"/>
<polyline points= " 0.0015000000 -0.0015001952 0.0014977341 -0.0015826116 0.0014906639 -0.0016672914 0.0014783885 -0.0017539028 0.0014605263 -0.0018420474 0.0014367267 -0.0019312596 0.0014066820 -0.0020210078 0.0013701413 -0.0021106973 0.0013269231 -0.0021996773 0.0012769278 -0.0022872502 0.0012493829 -0.0023302810 0.0012201493 -0.0023726835 0.0011892421 -0.0024143633 0.0011566835 -0.0024552258 0.0011225024 -0.0024951769 0.0010867347 -0.0025341235 0.0010494233 -0.0025719745 0.0010106178 -0.0026086409 0.0009703746 -0.0026440367 0.0009287565 -0.0026780795 0.0008858325 -0.0027106913 0.0008416775 -0.0027417986 0.0007963716 -0.0027713334 0.0007500000 -0.0027992333 0.0007026521 -0.0028254424 0.0006544213 -0.0028499110 0.0006054041 -0.0028725967 0.0005556995 -0.0028934641 0.0005054085 -0.0029124850 0.0004546332 -0.0029296387 0.0004034764 -0.0029449121 0.0003520408 -0.0029582992 0.0003004282 -0.0029698016 0.0002487390 -0.0029794278 0.0001970717 -0.0029871931 0.0001455224 -0.0029931196 0.0000941839 -0.0029972355 0.0000431457 -0.0029995746 -0.0000075068 -0.0030001765 -0.0000576923 -0.0029990854 -0.0001563604 -0.0029920235 -0.0002523041 -0.0029788239 -0.0003450506 -0.0029599692 -0.0004342105 -0.0029359742 -0.0005194771 -0.0029073710 -0.0006006224 -0.0028746961 -0.0006774924 -0.0028384792 -0.0007500000 -0.0027992333 -0.0008202417 -0.0027560629 -0.0008900415 -0.0027076000 -0.0009589114 -0.0026536634 -0.0010263158 -0.0025941221 -0.0010916760 -0.0025289048 -0.0011543779 -0.0024580114 -0.0012137809 -0.0023815214 -0.0012692308 -0.0022996033 -0.0013200734 -0.0022125197 -0.0013435668 -0.0021671497 -0.0013656716 -0.0021206314 -0.0013863138 -0.0020730251 -0.0014054224 -0.0020243973 -0.0014229305 -0.0019748200 -0.0014387755 -0.0019243710 -0.0014528997 -0.0018731328 -0.0014652510 -0.0018211931 -0.0014757830 -0.0017686435 -0.0014844560 -0.0017155798 -0.0014912366 -0.0016621007 -0.0014960988 -0.0016083076 -0.0014990238 -0.0015543042 -0.0015000000 -0.0015001952 -0.0014990238 -0.0014460863 -0.0014960988 -0.0013920828 -0.0014912366 -0.0013382898 -0.0014844560 -0.0012848107 -0.0014757830 -0.0012317469 -0.0014652510 -0.0011791974 -0.0014528997 -0.0011272577 -0.0014387755 -0.0010760195 -0.0014229305 -0.0010255705 -0.0014054224 -0.0009759932 -0.0013863138 -0.0009273654 -0.0013656716 -0.0008797591 -0.0013435668 -0.0008332408 -0.0013200734 -0.0007878708 -0.0012952684 -0.0007437035 -0.0012692308 -0.0007007872 -0.0012137809 -0.0006188690 -0.0011543779 -0.0005423791 -0.0010916760 -0.0004714857 -0.0010263158 -0.0004062684 -0.0009589114 -0.0003467270 -0.0008900415 -0.0002927905 -0.0008202417 -0.0002443276 -0.0007500000 -0.0002011571 -0.0006774924 -0.0001619113 -0.0006006224 -0.0001256943 -0.0005194771 -0.0000930195 -0.0004342105 -0.0000644163 -0.0003450506 -0.0000404213 -0.0002523041 -0.0000215666 -0.0001563604 -0.0000083670 -0.0000576923 -0.0000013051 0.0000431457 -0.0000008159 0.0000941839 -0.0000031550 0.0001455224 -0.0000072709 0.0001970717 -0.0000131973 0.0002487390 -0.0000209627 0.0003004282 -0.0000305889 0.0003520408 -0.0000420912 0.0004034764 -0.0000554784 0.0004546332 -0.0000707518 0.0005054085 -0.0000879055 0.0005556995 -0.0001069264 0.0006054041 -0.0001277937 0.0006544213 -0.0001504794 0.0007026521 -0.0001749481 0.0007500000 -0.0002011571 0.0007963716 -0.0002290571 0.0008416775 -0.0002585919 0.0008858325 -0.0002896992 0.0009287565 -0.0003223110 0.0009703746 -0.0003563538 0.0010106178 -0.0003917496 0.0010494233 -0.0004284160 0.0010867347 -0.0004662670 0.0011225024 -0.0005052136 0.0011566835 -0.0005451647 0.0011892421 -0.0005860272 0.0012201493 -0.0006277070 0.0012493829 -0.0006701095 0.0012769278 -0.0007131403 0.0013027753 -0.0007567057 0.0013269231 -0.0008007132 0.0013701413 -0.0008896932 0.0014066820 -0.0009793827 0.0014367267 -0.0010691309 0.0014605263 -0.0011583431 0.0014783885 -0.0012464877 0.0014906639 -0.0013330991 0.0014977341 -0.0014177789 0.0015000000 -0.0015001952 "
stroke-width="0.0001800000" stroke="param(outline)" fill="none"/>
<polyline points= " 0.0053000000 -0.0015001952 0.0052977341 -0.0015826116 0.0052906639 -0.0016672914 0.0052783885 -0.0017539028 0.0052605263 -0.0018420474 0.0052367267 -0.0019312596 0.0052066820 -0.0020210078 0.0051701413 -0.0021106973 0.0051269231 -0.0021996773 0.0050769278 -0.0022872502 0.0050493829 -0.0023302810 0.0050201493 -0.0023726835 0.0049892421 -0.0024143633 0.0049566835 -0.0024552258 0.0049225024 -0.0024951769 0.0048867347 -0.0025341235 0.0048494233 -0.0025719745 0.0048106178 -0.0026086409 0.0047703746 -0.0026440367 0.0047287565 -0.0026780795 0.0046858325 -0.0027106913 0.0046416775 -0.0027417986 0.0045963716 -0.0027713334 0.0045500000 -0.0027992333 0.0045026521 -0.0028254424 0.0044544213 -0.0028499110 0.0044054041 -0.0028725967 0.0043556995 -0.0028934641 0.0043054085 -0.0029124850 0.0042546332 -0.0029296387 0.0042034764 -0.0029449121 0.0041520408 -0.0029582992 0.0041004282 -0.0029698016 0.0040487390 -0.0029794278 0.0039970717 -0.0029871931 0.0039455224 -0.0029931196 0.0038941839 -0.0029972355 0.0038431457 -0.0029995746 0.0037924932 -0.0030001765 0.0037423077 -0.0029990854 0.0036436396 -0.0029920235 0.0035476959 -0.0029788239 0.0034549494 -0.0029599692 0.0033657895 -0.0029359742 0.0032805229 -0.0029073710 0.0031993776 -0.0028746961 0.0031225076 -0.0028384792 0.0030500000 -0.0027992333 0.0029797583 -0.0027560629 0.0029099585 -0.0027076000 0.0028410886 -0.0026536634 0.0027736842 -0.0025941221 0.0027083240 -0.0025289048 0.0026456221 -0.0024580114 0.0025862191 -0.0023815214 0.0025307692 -0.0022996033 0.0024799266 -0.0022125197 0.0024564332 -0.0021671497 0.0024343284 -0.0021206314 0.0024136862 -0.0020730251 0.0023945776 -0.0020243973 0.0023770695 -0.0019748200 0.0023612245 -0.0019243710 0.0023471003 -0.0018731328 0.0023347490 -0.0018211931 0.0023242170 -0.0017686435 0.0023155440 -0.0017155798 0.0023087634 -0.0016621007 0.0023039012 -0.0016083076 0.0023009762 -0.0015543042 0.0023000000 -0.0015001952 0.0023009762 -0.0014460863 0.0023039012 -0.0013920828 0.0023087634 -0.0013382898 0.0023155440 -0.0012848107 0.0023242170 -0.0012317469 0.0023347490 -0.0011791974 0.0023471003 -0.0011272577 0.0023612245 -0.0010760195 0.0023770695 -0.0010255705 0.0023945776 -0.0009759932 0.0024136862 -0.0009273654 0.0024343284 -0.0008797591 0.0024564332 -0.0008332408 0.0024799266 -0.0007878708 0.0025047316 -0.0007437035 0.0025307692 -0.0007007872 0.0025862191 -0.0006188690 0.0026456221 -0.0005423791 0.0027083240 -0.0004714857 0.0027736842 -0.0004062684 0.0028410886 -0.0003467270 0.0029099585 -0.0002927905 0.0029797583 -0.0002443276 0.0030500000 -0.0002011571 0.0031225076 -0.0001619113 0.0031993776 -0.0001256943 0.0032805229 -0.0000930195 0.0033657895 -0.0000644163 0.0034549494 -0.0000404213 0.0035476959 -0.0000215666 0.0036436396 -0.0000083670 0.0037423077 -0.0000013051 0.0038431457 -0.0000008159 0.0038941839 -0.0000031550 0.0039455224 -0.0000072709 0.0039970717 -0.0000131973 0.0040487390 -0.0000209627 0.0041004282 -0.0000305889 0.0041520408 -0.0000420912 0.0042034764 -0.0000554784 0.0042546332 -0.0000707518 0.0043054085 -0.0000879055 0.0043556995 -0.0001069264 0.0044054041 -0.0001277937 0.0044544213 -0.0001504794 0.0045026521 -0.0001749481 0.0045500000 -0.0002011571 0.0045963716 -0.0002290571 0.0046416775 -0.0002585919 0.0046858325 -0.0002896992 0.0047287565 -0.0003223110 0.0047703746 -0.0003563538 0.0048106178 -0.0003917496 0.0048494233 -0.0004284160 0.0048867347 -0.0004662670 0.0049225024 -0.0005052136 0.0049566835 -0.0005451647 0.0049892421 -0.0005860272 0.0050201493 -0.0006277070 0.0050493829 -0.0006701095 0.0050769278 -0.0007131403 0.0051027753 -0.0007567057 0.0051269231 -0.0008007132 0.0051701413 -0.0008896932 0.0052066820 -0.0009793827 0.0052367267 -0.0010691309 0.0052605263 -0.0011583431 0.0052783885 -0.0012464877 0.0052906639 -0.0013330991 0.0052977341 -0.0014177789 0.0053000000 -0.0015001952 "
stroke-width="0.0001800000" stroke="param(outline)" fill="none"/>
<polyline points= " 0.0033999918 -0.0000002126 0.0033977260 -0.0000826289 0.0033906557 -0.0001673088 0.0033783803 -0.0002539202 0.0033605181 -0.0003420647 0.0033367185 -0.0004312770 0.0033066739 -0.0005210251 0.0032701332 -0.0006107146 0.0032269149 -0.0006996947 0.0031769196 -0.0007872675 0.0031493747 -0.0008302984 0.0031201411 -0.0008727009 0.0030892339 -0.0009143807 0.0030566753 -0.0009552431 0.0030224942 -0.0009951942 0.0029867265 -0.0010341409 0.0029494151 -0.0010719919 0.0029106096 -0.0011086582 0.0028703664 -0.0011440540 0.0028287483 -0.0011780969 0.0027858243 -0.0012107087 0.0027416693 -0.0012418160 0.0026963634 -0.0012713508 0.0026499918 -0.0012992507 0.0026026440 -0.0013254597 0.0025544132 -0.0013499284 0.0025053959 -0.0013726141 0.0024556913 -0.0013934815 0.0024054003 -0.0014125023 0.0023546250 -0.0014296561 0.0023034683 -0.0014449294 0.0022520326 -0.0014583166 0.0022004200 -0.0014698190 0.0021487308 -0.0014794452 0.0020970635 -0.0014872105 0.0020455142 -0.0014931370 0.0019941757 -0.0014972528 0.0019431375 -0.0014995920 0.0018924850 -0.0015001938 0.0018422995 -0.0014991027 0.0017436314 -0.0014920408 0.0016476877 -0.0014788412 0.0015549412 -0.0014599866 0.0014657813 -0.0014359916 0.0013805148 -0.0014073884 0.0012993694 -0.0013747135 0.0012224994 -0.0013384966 0.0011499918 -0.0012992507 0.0010797501 -0.0012560803 0.0010099503 -0.0012076173 0.0009410804 -0.0011536808 0.0008736760 -0.0010941394 0.0008083158 -0.0010289222 0.0007456139 -0.0009580287 0.0006862109 -0.0008815388 0.0006307611 -0.0007996207 0.0005799184 -0.0007125370 0.0005564250 -0.0006671671 0.0005343202 -0.0006206487 0.0005136780 -0.0005730424 0.0004945694 -0.0005244146 0.0004770613 -0.0004748374 0.0004612163 -0.0004243883 0.0004470921 -0.0003731502 0.0004347409 -0.0003212104 0.0004242088 -0.0002686609 0.0004155359 -0.0002155972 0.0004087552 -0.0001621180 0.0004038930 -0.0001083250 0.0004009681 -0.0000543216 0.0003999918 -0.0000002126 0.0004009681 0.0000538964 0.0004038930 0.0001078998 0.0004087552 0.0001616928 0.0004155359 0.0002151720 0.0004242088 0.0002682357 0.0004347409 0.0003207852 0.0004470921 0.0003727250 0.0004612163 0.0004239631 0.0004770613 0.0004744122 0.0004945694 0.0005239894 0.0005136780 0.0005726172 0.0005343202 0.0006202235 0.0005564250 0.0006667419 0.0005799184 0.0007121118 0.0006047234 0.0007562791 0.0006307611 0.0007991955 0.0006862109 0.0008811136 0.0007456139 0.0009576035 0.0008083158 0.0010284970 0.0008736760 0.0010937142 0.0009410804 0.0011532556 0.0010099503 0.0012071921 0.0010797501 0.0012556551 0.0011499918 0.0012988255 0.0012224994 0.0013380714 0.0012993694 0.0013742883 0.0013805148 0.0014069631 0.0014657813 0.0014355664 0.0015549412 0.0014595614 0.0016476877 0.0014784160 0.0017436314 0.0014916156 0.0018422995 0.0014986775 0.0019431375 0.0014991668 0.0019941757 0.0014968276 0.0020455142 0.0014927118 0.0020970635 0.0014867853 0.0021487308 0.0014790199 0.0022004200 0.0014693938 0.0022520326 0.0014578914 0.0023034683 0.0014445042 0.0023546250 0.0014292309 0.0024054003 0.0014120771 0.0024556913 0.0013930562 0.0025053959 0.0013721889 0.0025544132 0.0013495032 0.0026026440 0.0013250345 0.0026499918 0.0012988255 0.0026963634 0.0012709256 0.0027416693 0.0012413908 0.0027858243 0.0012102835 0.0028287483 0.0011776717 0.0028703664 0.0011436288 0.0029106096 0.0011082330 0.0029494151 0.0010715667 0.0029867265 0.0010337157 0.0030224942 0.0009947690 0.0030566753 0.0009548179 0.0030892339 0.0009139555 0.0031201411 0.0008722757 0.0031493747 0.0008298731 0.0031769196 0.0007868423 0.0032027671 0.0007432769 0.0032269149 0.0006992695 0.0032701332 0.0006102894 0.0033066739 0.0005205999 0.0033367185 0.0004308518 0.0033605181 0.0003416395 0.0033783803 0.0002534949 0.0033906557 0.0001668836 0.0033977260 0.0000822037 0.0033999918 -0.0000002126 "
stroke-width="0.0001800000" stroke="param(outline)" fill="none"/>
</symbol>
</svg>