<?xml version="1.0" encoding="UTF-8"?> 
<!DOCTYPE svg PUBLIC "-//W3C//DTD SVG 1.0//EN" "http://www.w3.org/TR/SVG/DTD/svg10.dtd">
<svg xmlns="http://www.w3.org/2000/svg" xmlns:xlink="http://www.w3.org/1999/xlink" xmlns:gmsvgsym="http://www.intergraph.com/GeoMedia/svgsym">
<symbol id="SUSM03_01" viewBox="-0.00100000016391277310 -0.00456710252910852430 0.00200000032782554630 0.00550000066868960860" style="stroke-linejoin:round"><!-- Creator: SVG Document for Symbols-->
<polyline points= " 0.0000000000 -0.0000671019 0.0000000000 -0.0045671019"  style = "  stroke-width: 0.0001800000; stroke-linecap: round;stroke: #000000; fill: none; " />
<g id = "ComplexString2d_0" style = " fill-rule: evenodd; stroke-width: 0.0000000000;stroke: #ffffff; fill: #ffffff; " >
<path d="M 0.0010000000 -0.0000671019 L 0.0009984894 -0.0001220462 L 0.0009937759 -0.0001784994 L 0.0009855923 -0.0002362403 L 0.0009736842 -0.0002950034 L 0.0009578178 -0.0003544782 L 0.0009377880 -0.0004143103 L 0.0009134276 -0.0004741033 L 0.0008846154 -0.0005334233 L 0.0008512852 -0.0005918052 L 0.0008134328 -0.0006487608 L 0.0007711223 -0.0007037890 L 0.0007244898 -0.0007563875 L 0.0006737452 -0.0008060657 L 0.0006191710 -0.0008523581 L 0.0005611183 -0.0008948375 L 0.0005000000 -0.0009331273 L 0.0004362809 -0.0009669125 L 0.0003704663 -0.0009959478 L 0.0003030888 -0.0010200643 L 0.0002346939 -0.0010391713 L 0.0001658260 -0.0010532570 L 0.0000970149 -0.0010623849 L 0.0000287638 -0.0010666882 L -0.0000384615 -0.0010663620 L -0.0001042403 -0.0010616541 L -0.0001682028 -0.0010528544 L -0.0002300337 -0.0010402846 L -0.0002894737 -0.0010242879 L -0.0003463180 -0.0010052191 L -0.0004004149 -0.0009834359 L -0.0004516616 -0.0009592913 L -0.0005000000 -0.0009331273 L -0.0005468278 -0.0009043470 L -0.0005933610 -0.0008720384 L -0.0006392743 -0.0008360807 L -0.0006842105 -0.0007963865 L -0.0007277840 -0.0007529083 L -0.0007695853 -0.0007056460 L -0.0008091873 -0.0006546527 L -0.0008461538 -0.0006000407 L -0.0008800490 -0.0005419849 L -0.0009104478 -0.0004807260 L -0.0009369483 -0.0004165700 L -0.0009591837 -0.0003498857 L -0.0009768340 -0.0002811005 L -0.0009896373 -0.0002106916 L -0.0009973992 -0.0001391769 L -0.0010000000 -0.0000671019 L -0.0009973992 0.0000049730 L -0.0009896373 0.0000764878 L -0.0009768340 0.0001468966 L -0.0009591837 0.0002156819 L -0.0009369483 0.0002823661 L -0.0009104478 0.0003465221 L -0.0008800490 0.0004077810 L -0.0008461538 0.0004658368 L -0.0008091873 0.0005204489 L -0.0007695853 0.0005714421 L -0.0007277840 0.0006187045 L -0.0006842105 0.0006621826 L -0.0006392743 0.0007018769 L -0.0005933610 0.0007378345 L -0.0005468278 0.0007701432 L -0.0005000000 0.0007989235 L -0.0004516616 0.0008250874 L -0.0004004149 0.0008492320 L -0.0003463180 0.0008710152 L -0.0002894737 0.0008900840 L -0.0002300337 0.0009060807 L -0.0001682028 0.0009186505 L -0.0001042403 0.0009274502 L -0.0000384615 0.0009321581 L 0.0000287638 0.0009324843 L 0.0000970149 0.0009281810 L 0.0001658260 0.0009190531 L 0.0002346939 0.0009049674 L 0.0003030888 0.0008858604 L 0.0003704663 0.0008617440 L 0.0004362809 0.0008327086 L 0.0005000000 0.0007989235 L 0.0005611183 0.0007606337 L 0.0006191710 0.0007181543 L 0.0006737452 0.0006718618 L 0.0007244898 0.0006221836 L 0.0007711223 0.0005695851 L 0.0008134328 0.0005145569 L 0.0008512852 0.0004576013 L 0.0008846154 0.0003992194 L 0.0009134276 0.0003398994 L 0.0009377880 0.0002801064 L 0.0009578178 0.0002202743 L 0.0009736842 0.0001607995 L 0.0009855923 0.0001020364 L 0.0009937759 0.0000442955 L 0.0009984894 -0.0000121577 L 0.0010000000 -0.0000671019 Z"/>
</g>
<polyline points= " 0.0010000000 -0.0000671019 0.0009984894 -0.0001220462 0.0009937759 -0.0001784994 0.0009855923 -0.0002362403 0.0009736842 -0.0002950034 0.0009578178 -0.0003544782 0.0009377880 -0.0004143103 0.0009134276 -0.0004741033 0.0008846154 -0.0005334233 0.0008512852 -0.0005918052 0.0008134328 -0.0006487608 0.0007711223 -0.0007037890 0.0007244898 -0.0007563875 0.0006737452 -0.0008060657 0.0006191710 -0.0008523581 0.0005611183 -0.0008948375 0.0005000000 -0.0009331273 0.0004362809 -0.0009669125 0.0003704663 -0.0009959478 0.0003030888 -0.0010200643 0.0002346939 -0.0010391713 0.0001658260 -0.0010532570 0.0000970149 -0.0010623849 0.0000287638 -0.0010666882 -0.0000384615 -0.0010663620 -0.0001042403 -0.0010616541 -0.0001682028 -0.0010528544 -0.0002300337 -0.0010402846 -0.0002894737 -0.0010242879 -0.0003463180 -0.0010052191 -0.0004004149 -0.0009834359 -0.0004516616 -0.0009592913 -0.0005000000 -0.0009331273 -0.0005468278 -0.0009043470 -0.0005933610 -0.0008720384 -0.0006392743 -0.0008360807 -0.0006842105 -0.0007963865 -0.0007277840 -0.0007529083 -0.0007695853 -0.0007056460 -0.0008091873 -0.0006546527 -0.0008461538 -0.0006000407 -0.0008800490 -0.0005419849 -0.0009104478 -0.0004807260 -0.0009369483 -0.0004165700 -0.0009591837 -0.0003498857 -0.0009768340 -0.0002811005 -0.0009896373 -0.0002106916 -0.0009973992 -0.0001391769 -0.0010000000 -0.0000671019 -0.0009973992 0.0000049730 -0.0009896373 0.0000764878 -0.0009768340 0.0001468966 -0.0009591837 0.0002156819 -0.0009369483 0.0002823661 -0.0009104478 0.0003465221 -0.0008800490 0.0004077810 -0.0008461538 0.0004658368 -0.0008091873 0.0005204489 -0.0007695853 0.0005714421 -0.0007277840 0.0006187045 -0.0006842105 0.0006621826 -0.0006392743 0.0007018769 -0.0005933610 0.0007378345 -0.0005468278 0.0007701432 -0.0005000000 0.0007989235 -0.0004516616 0.0008250874 -0.0004004149 0.0008492320 -0.0003463180 0.0008710152 -0.0002894737 0.0008900840 -0.0002300337 0.0009060807 -0.0001682028 0.0009186505 -0.0001042403 0.0009274502 -0.0000384615 0.0009321581 0.0000287638 0.0009324843 0.0000970149 0.0009281810 0.0001658260 0.0009190531 0.0002346939 0.0009049674 0.0003030888 0.0008858604 0.0003704663 0.0008617440 0.0004362809 0.0008327086 0.0005000000 0.0007989235 0.0005611183 0.0007606337 0.0006191710 0.0007181543 0.0006737452 0.0006718618 0.0007244898 0.0006221836 0.0007711223 0.0005695851 0.0008134328 0.0005145569 0.0008512852 0.0004576013 0.0008846154 0.0003992194 0.0009134276 0.0003398994 0.0009377880 0.0002801064 0.0009578178 0.0002202743 0.0009736842 0.0001607995 0.0009855923 0.0001020364 0.0009937759 0.0000442955 0.0009984894 -0.0000121577 0.0010000000 -0.0000671019 "  style = " stroke-width: 0.0001800000;stroke: #000000; fill: none; " />
<polyline points= " 0.0000000000 -0.0045671019 0.0010000000 -0.0045671019"  style = "  stroke-width: 0.0001800000; stroke-linecap: round;stroke: #000000; fill: none; " />
<polyline points= " 0.0000000000 -0.0045671019 -0.0010000000 -0.0045671019"  style = "  stroke-width: 0.0001800000; stroke-linecap: round;stroke: #000000; fill: none; " />
<polyline points= " 0.0000000000 -0.0045671019 0.0000000000 -0.0035671019"  style = "  stroke-width: 0.0001800000; stroke-linecap: round;stroke: #000000; fill: none; " />
<polyline points= " 0.0000000000 -0.0035671019 0.0010000000 -0.0035671019"  style = "  stroke-width: 0.0001800000; stroke-linecap: round;stroke: #000000; fill: none; " />
<polyline points= " 0.0000000000 -0.0035671019 -0.0010000000 -0.0035671019"  style = "  stroke-width: 0.0001800000; stroke-linecap: round;stroke: #000000; fill: none; " />
</symbol>
</svg>