<?xml version="1.0" encoding="UTF-8"?> 
<!DOCTYPE svg PUBLIC "-//W3C//DTD SVG 1.0//EN" "http://www.w3.org/TR/SVG/DTD/svg10.dtd">
<svg xmlns="http://www.w3.org/2000/svg" xmlns:xlink="http://www.w3.org/1999/xlink" xmlns:gmsvgsym="http://www.intergraph.com/GeoMedia/svgsym">
<symbol id="SUSM07" viewBox="-0.00210000015795230870 -0.00750000029802322390 0.00260000023990869520 0.00800000037997961040" style="stroke-linejoin:round"><!-- Creator: SVG Document for Symbols-->
<path id ="LineString2d_0"  style = " stroke-width: 0.0001800000;stroke: #0a0909; fill: none; "  d="M 0.0000000000 -0.0005000000 L 0.0000000000 -0.0045000000 L -0.0014000000 -0.0035000000 L -0.0014000000 -0.0075000000"/>

<path id ="LineString2d_1"  style = " stroke-width: 0.0001800000;stroke: #0a0909; fill: none; "  d="M -0.0021000000 -0.0068000000 L -0.0014000000 -0.0075000000 L -0.0007000000 -0.0068000000"/>

<g id = "ComplexString2d_2" style = " fill-rule: evenodd; stroke-width: 0.0000000000;stroke: #ffffff; fill: #ffffff; " >
<path d="M 0.0005000000 -0.0000000000 L 0.0004968880 -0.0000556987 L 0.0004927962 -0.0000845692 L 0.0004868421 -0.0001139507 L 0.0004789089 -0.0001436881 L 0.0004688940 -0.0001736042 L 0.0004567138 -0.0002035007 L 0.0004423077 -0.0002331607 L 0.0004256426 -0.0002623516 L 0.0004067164 -0.0002908294 L 0.0003855612 -0.0003183435 L 0.0003622449 -0.0003446428 L 0.0003368726 -0.0003694819 L 0.0003095855 -0.0003926281 L 0.0002805592 -0.0004138678 L 0.0002500000 -0.0004330127 L 0.0002181404 -0.0004499053 L 0.0001852332 -0.0004644229 L 0.0001515444 -0.0004764812 L 0.0001173469 -0.0004860347 L 0.0000829130 -0.0004930775 L 0.0000485075 -0.0004976415 L 0.0000143819 -0.0004997931 L -0.0000192308 -0.0004996300 L -0.0000521201 -0.0004972761 L -0.0000841014 -0.0004928762 L -0.0001150169 -0.0004865913 L -0.0001447368 -0.0004785930 L -0.0001731590 -0.0004690586 L -0.0002002075 -0.0004581670 L -0.0002258308 -0.0004460947 L -0.0002500000 -0.0004330127 L -0.0002966805 -0.0004024682 L -0.0003196371 -0.0003844894 L -0.0003421053 -0.0003646423 L -0.0003638920 -0.0003429032 L -0.0003847926 -0.0003192720 L -0.0004045936 -0.0002937754 L -0.0004230769 -0.0002664694 L -0.0004400245 -0.0002374415 L -0.0004552239 -0.0002068120 L -0.0004684741 -0.0001747340 L -0.0004795918 -0.0001413919 L -0.0004884170 -0.0001069993 L -0.0004948187 -0.0000717949 L -0.0004986996 -0.0000360375 L -0.0005000000 -0.0000000000 L -0.0004986996 0.0000360375 L -0.0004948187 0.0000717949 L -0.0004884170 0.0001069993 L -0.0004795918 0.0001413919 L -0.0004684741 0.0001747340 L -0.0004552239 0.0002068120 L -0.0004400245 0.0002374415 L -0.0004230769 0.0002664694 L -0.0004045936 0.0002937754 L -0.0003847926 0.0003192720 L -0.0003638920 0.0003429032 L -0.0003421053 0.0003646423 L -0.0003196371 0.0003844894 L -0.0002966805 0.0004024682 L -0.0002734139 0.0004186226 L -0.0002500000 0.0004330127 L -0.0002002075 0.0004581670 L -0.0001731590 0.0004690586 L -0.0001447368 0.0004785930 L -0.0001150169 0.0004865913 L -0.0000841014 0.0004928762 L -0.0000521201 0.0004972761 L -0.0000192308 0.0004996300 L 0.0000143819 0.0004997931 L 0.0000485075 0.0004976415 L 0.0000829130 0.0004930775 L 0.0001173469 0.0004860347 L 0.0001515444 0.0004764812 L 0.0001852332 0.0004644229 L 0.0002181404 0.0004499053 L 0.0002500000 0.0004330127 L 0.0002805592 0.0004138678 L 0.0003095855 0.0003926281 L 0.0003368726 0.0003694819 L 0.0003622449 0.0003446428 L 0.0003855612 0.0003183435 L 0.0004067164 0.0002908294 L 0.0004256426 0.0002623516 L 0.0004423077 0.0002331607 L 0.0004567138 0.0002035007 L 0.0004688940 0.0001736042 L 0.0004789089 0.0001436881 L 0.0004868421 0.0001139507 L 0.0004927962 0.0000845692 L 0.0004968880 0.0000556987 L 0.0004992447 0.0000274721 L 0.0005000000 0.0000000000 Z"/>
</g>
<polyline points= " 0.0005000000 -0.0000000000 0.0004968880 -0.0000556987 0.0004927962 -0.0000845692 0.0004868421 -0.0001139507 0.0004789089 -0.0001436881 0.0004688940 -0.0001736042 0.0004567138 -0.0002035007 0.0004423077 -0.0002331607 0.0004256426 -0.0002623516 0.0004067164 -0.0002908294 0.0003855612 -0.0003183435 0.0003622449 -0.0003446428 0.0003368726 -0.0003694819 0.0003095855 -0.0003926281 0.0002805592 -0.0004138678 0.0002500000 -0.0004330127 0.0002181404 -0.0004499053 0.0001852332 -0.0004644229 0.0001515444 -0.0004764812 0.0001173469 -0.0004860347 0.0000829130 -0.0004930775 0.0000485075 -0.0004976415 0.0000143819 -0.0004997931 -0.0000192308 -0.0004996300 -0.0000521201 -0.0004972761 -0.0000841014 -0.0004928762 -0.0001150169 -0.0004865913 -0.0001447368 -0.0004785930 -0.0001731590 -0.0004690586 -0.0002002075 -0.0004581670 -0.0002258308 -0.0004460947 -0.0002500000 -0.0004330127 -0.0002966805 -0.0004024682 -0.0003196371 -0.0003844894 -0.0003421053 -0.0003646423 -0.0003638920 -0.0003429032 -0.0003847926 -0.0003192720 -0.0004045936 -0.0002937754 -0.0004230769 -0.0002664694 -0.0004400245 -0.0002374415 -0.0004552239 -0.0002068120 -0.0004684741 -0.0001747340 -0.0004795918 -0.0001413919 -0.0004884170 -0.0001069993 -0.0004948187 -0.0000717949 -0.0004986996 -0.0000360375 -0.0005000000 -0.0000000000 -0.0004986996 0.0000360375 -0.0004948187 0.0000717949 -0.0004884170 0.0001069993 -0.0004795918 0.0001413919 -0.0004684741 0.0001747340 -0.0004552239 0.0002068120 -0.0004400245 0.0002374415 -0.0004230769 0.0002664694 -0.0004045936 0.0002937754 -0.0003847926 0.0003192720 -0.0003638920 0.0003429032 -0.0003421053 0.0003646423 -0.0003196371 0.0003844894 -0.0002966805 0.0004024682 -0.0002734139 0.0004186226 -0.0002500000 0.0004330127 -0.0002002075 0.0004581670 -0.0001731590 0.0004690586 -0.0001447368 0.0004785930 -0.0001150169 0.0004865913 -0.0000841014 0.0004928762 -0.0000521201 0.0004972761 -0.0000192308 0.0004996300 0.0000143819 0.0004997931 0.0000485075 0.0004976415 0.0000829130 0.0004930775 0.0001173469 0.0004860347 0.0001515444 0.0004764812 0.0001852332 0.0004644229 0.0002181404 0.0004499053 0.0002500000 0.0004330127 0.0002805592 0.0004138678 0.0003095855 0.0003926281 0.0003368726 0.0003694819 0.0003622449 0.0003446428 0.0003855612 0.0003183435 0.0004067164 0.0002908294 0.0004256426 0.0002623516 0.0004423077 0.0002331607 0.0004567138 0.0002035007 0.0004688940 0.0001736042 0.0004789089 0.0001436881 0.0004868421 0.0001139507 0.0004927962 0.0000845692 0.0004968880 0.0000556987 0.0004992447 0.0000274721 0.0005000000 0.0000000000 "  style = " stroke-width: 0.0001800000;stroke: #0a0909; fill: none; " />
</symbol>
</svg>