<svg xmlns="http://www.w3.org/2000/svg">
<symbol id="SUUS16" viewBox="-0.00175000017043203120 -0.00075000006472691894 0.00250000023515895010 0.00150000012945383790" style="stroke-linejoin:round">
<path d="M 0.0007500000 -0.0000000000 L 0.0007488671 -0.0000412082 L 0.0007453320 -0.0000835481 L 0.0007391942 -0.0001268538 L 0.0007302632 -0.0001709261 L 0.0007183633 -0.0002155322 L 0.0007033410 -0.0002604063 L 0.0006850707 -0.0003052510 L 0.0006634615 -0.0003497410 L 0.0006384639 -0.0003935275 L 0.0006100746 -0.0004362441 L 0.0005783417 -0.0004775153 L 0.0005433673 -0.0005169641 L 0.0005053089 -0.0005542228 L 0.0004643782 -0.0005889421 L 0.0004208388 -0.0006208017 L 0.0003750000 -0.0006495191 L 0.0003272107 -0.0006748579 L 0.0002778497 -0.0006966344 L 0.0002273166 -0.0007147217 L 0.0001760204 -0.0007290520 L 0.0001243695 -0.0007396163 L 0.0000727612 -0.0007464622 L 0.0000215728 -0.0007496897 L -0.0000288462 -0.0007494451 L -0.0000781802 -0.0007459141 L -0.0001261521 -0.0007393143 L -0.0001725253 -0.0007298870 L -0.0002171053 -0.0007178895 L -0.0002597385 -0.0007035879 L -0.0003003112 -0.0006872505 L -0.0003387462 -0.0006691420 L -0.0003750000 -0.0006495191 L -0.0004101208 -0.0006279338 L -0.0004450207 -0.0006037024 L -0.0004794557 -0.0005767341 L -0.0005131579 -0.0005469634 L -0.0005458380 -0.0005143548 L -0.0005771889 -0.0004789081 L -0.0006068905 -0.0004406631 L -0.0006346154 -0.0003997040 L -0.0006600367 -0.0003561622 L -0.0006828358 -0.0003102181 L -0.0007027112 -0.0002621010 L -0.0007193878 -0.0002120879 L -0.0007326255 -0.0001604989 L -0.0007422280 -0.0001076923 L -0.0007480494 -0.0000540562 L -0.0007500000 -0.0000000000 L -0.0007480494 0.0000540562 L -0.0007422280 0.0001076923 L -0.0007326255 0.0001604989 L -0.0007193878 0.0002120879 L -0.0007027112 0.0002621010 L -0.0006828358 0.0003102181 L -0.0006600367 0.0003561622 L -0.0006346154 0.0003997040 L -0.0006068905 0.0004406631 L -0.0005771889 0.0004789081 L -0.0005458380 0.0005143548 L -0.0005131579 0.0005469634 L -0.0004794557 0.0005767341 L -0.0004450207 0.0006037024 L -0.0004101208 0.0006279338 L -0.0003750000 0.0006495191 L -0.0003387462 0.0006691420 L -0.0003003112 0.0006872505 L -0.0002597385 0.0007035879 L -0.0002171053 0.0007178895 L -0.0001725253 0.0007298870 L -0.0001261521 0.0007393143 L -0.0000781802 0.0007459141 L -0.0000288462 0.0007494451 L 0.0000215728 0.0007496897 L 0.0000727612 0.0007464622 L 0.0001243695 0.0007396163 L 0.0001760204 0.0007290520 L 0.0002273166 0.0007147217 L 0.0002778497 0.0006966344 L 0.0003272107 0.0006748579 L 0.0003750000 0.0006495191 L 0.0004208388 0.0006208017 L 0.0004643782 0.0005889421 L 0.0005053089 0.0005542228 L 0.0005433673 0.0005169641 L 0.0005783417 0.0004775153 L 0.0006100746 0.0004362441 L 0.0006384639 0.0003935275 L 0.0006634615 0.0003497410 L 0.0006850707 0.0003052510 L 0.0007033410 0.0002604063 L 0.0007183633 0.0002155322 L 0.0007302632 0.0001709261 L 0.0007391942 0.0001268538 L 0.0007453320 0.0000835481 L 0.0007488671 0.0000412082 L 0.0007500000 0.0000000000 Z" fill-rule="evenodd" stroke-width="0.0000000000" stroke="#ffffff" fill="#ffffff"/>
<polyline points= " 0.0007500000 -0.0000000000 0.0007488671 -0.0000412082 0.0007453320 -0.0000835481 0.0007391942 -0.0001268538 0.0007302632 -0.0001709261 0.0007183633 -0.0002155322 0.0007033410 -0.0002604063 0.0006850707 -0.0003052510 0.0006634615 -0.0003497410 0.0006384639 -0.0003935275 0.0006100746 -0.0004362441 0.0005783417 -0.0004775153 0.0005433673 -0.0005169641 0.0005053089 -0.0005542228 0.0004643782 -0.0005889421 0.0004208388 -0.0006208017 0.0003750000 -0.0006495191 0.0003272107 -0.0006748579 0.0002778497 -0.0006966344 0.0002273166 -0.0007147217 0.0001760204 -0.0007290520 0.0001243695 -0.0007396163 0.0000727612 -0.0007464622 0.0000215728 -0.0007496897 -0.0000288462 -0.0007494451 -0.0000781802 -0.0007459141 -0.0001261521 -0.0007393143 -0.0001725253 -0.0007298870 -0.0002171053 -0.0007178895 -0.0002597385 -0.0007035879 -0.0003003112 -0.0006872505 -0.0003387462 -0.0006691420 -0.0003750000 -0.0006495191 -0.0004101208 -0.0006279338 -0.0004450207 -0.0006037024 -0.0004794557 -0.0005767341 -0.0005131579 -0.0005469634 -0.0005458380 -0.0005143548 -0.0005771889 -0.0004789081 -0.0006068905 -0.0004406631 -0.0006346154 -0.0003997040 -0.0006600367 -0.0003561622 -0.0006828358 -0.0003102181 -0.0007027112 -0.0002621010 -0.0007193878 -0.0002120879 -0.0007326255 -0.0001604989 -0.0007422280 -0.0001076923 -0.0007480494 -0.0000540562 -0.0007500000 -0.0000000000 -0.0007480494 0.0000540562 -0.0007422280 0.0001076923 -0.0007326255 0.0001604989 -0.0007193878 0.0002120879 -0.0007027112 0.0002621010 -0.0006828358 0.0003102181 -0.0006600367 0.0003561622 -0.0006346154 0.0003997040 -0.0006068905 0.0004406631 -0.0005771889 0.0004789081 -0.0005458380 0.0005143548 -0.0005131579 0.0005469634 -0.0004794557 0.0005767341 -0.0004450207 0.0006037024 -0.0004101208 0.0006279338 -0.0003750000 0.0006495191 -0.0003387462 0.0006691420 -0.0003003112 0.0006872505 -0.0002597385 0.0007035879 -0.0002171053 0.0007178895 -0.0001725253 0.0007298870 -0.0001261521 0.0007393143 -0.0000781802 0.0007459141 -0.0000288462 0.0007494451 0.0000215728 0.0007496897 0.0000727612 0.0007464622 0.0001243695 0.0007396163 0.0001760204 0.0007290520 0.0002273166 0.0007147217 0.0002778497 0.0006966344 0.0003272107 0.0006748579 0.0003750000 0.0006495191 0.0004208388 0.0006208017 0.0004643782 0.0005889421 0.0005053089 0.0005542228 0.0005433673 0.0005169641 0.0005783417 0.0004775153 0.0006100746 0.0004362441 0.0006384639 0.0003935275 0.0006634615 0.0003497410 0.0006850707 0.0003052510 0.0007033410 0.0002604063 0.0007183633 0.0002155322 0.0007302632 0.0001709261 0.0007391942 0.0001268538 0.0007453320 0.0000835481 0.0007488671 0.0000412082 0.0007500000 0.0000000000 " stroke-width="0.0001800000" stroke-linecap="round" stroke="param(outline)" fill="none" />
<path d="M -0.0017500000 -0.0007500000 L -0.0007500000 -0.0000000000 L -0.0017500000 0.0007500000 L -0.0017500000 -0.0007500000 Z" fill-rule="evenodd" stroke-width="0.0000000000" stroke="#ffffff" fill="#ffffff"/>
<path d="M -0.0017500000 -0.0007500000 L -0.0007500000 -0.0000000000 L -0.0017500000 0.0007500000 L -0.0017500000 -0.0007500000" stroke-width="0.0001800000" stroke-linecap="round" stroke="param(outline)" fill="none"/>

</symbol>
</svg>