<svg xmlns="http://www.w3.org/2000/svg">
<symbol id="Szuwary" viewBox="-0.00149837869685143230 -0.00260000023990869520 0.00299699802417308090 0.00260228924912553340" style="stroke-linejoin:round">
<path d="M -0.0004990932 -0.0001989172 L -0.0004983785 -0.0000977110 L -0.0005125027 -0.0000468106 L -0.0005435407 -0.0000104841 L -0.0005983785 0.0000022890 L -0.0006520130 -0.0000091110 L -0.0006830376 -0.0000431033 L -0.0006983785 -0.0000977110 L -0.0006983785 -0.0001977110 L -0.0006983785 -0.0003977110 L -0.0007140770 -0.0004922846 L -0.0007683318 -0.0005947659 L -0.0008466998 -0.0006791623 L -0.0009431528 -0.0007484879 L -0.0013900489 -0.0010262332 L -0.0014678307 -0.0011040151 L -0.0014883864 -0.0011419645 L -0.0014983785 -0.0011977110 L -0.0014939473 -0.0012392806 L -0.0014689232 -0.0012754266 L -0.0013983785 -0.0012977110 L -0.0012715612 -0.0012939074 L -0.0011457861 -0.0012845212 L -0.0010369062 -0.0012619944 L -0.0009674483 -0.0012357130 L -0.0008660774 -0.0011793958 L -0.0006952485 -0.0010498663 L -0.0005594659 -0.0008783306 L -0.0005124448 -0.0007749437 L -0.0004983785 -0.0006977110 L -0.0004990932 -0.0001989172 Z" fill-rule="evenodd" stroke-width="0.0000000000" stroke="param(outline)" fill="param(fill)"/>

<path d="M 0.0004993339 -0.0002048021 L 0.0004986193 -0.0001035958 L 0.0005127434 -0.0000526954 L 0.0005437815 -0.0000163689 L 0.0005986193 -0.0000035958 L 0.0006522537 -0.0000149958 L 0.0006832783 -0.0000489881 L 0.0006986193 -0.0001035958 L 0.0006986193 -0.0002035958 L 0.0006986193 -0.0004035958 L 0.0007143177 -0.0004981694 L 0.0007685725 -0.0006006507 L 0.0008469406 -0.0006850471 L 0.0009433936 -0.0007543727 L 0.0013902896 -0.0010321180 L 0.0014680714 -0.0011098999 L 0.0014886271 -0.0011478493 L 0.0014986193 -0.0012035958 L 0.0014941880 -0.0012451654 L 0.0014691639 -0.0012813114 L 0.0013986193 -0.0013035958 L 0.0012718019 -0.0012997922 L 0.0011460268 -0.0012904060 L 0.0010371469 -0.0012678792 L 0.0009676891 -0.0012415978 L 0.0008663181 -0.0011852806 L 0.0006954893 -0.0010557511 L 0.0005597067 -0.0008842154 L 0.0005126855 -0.0007808285 L 0.0004986193 -0.0007035958 L 0.0004993339 -0.0002048021 Z" fill-rule="evenodd" stroke-width="0.0000000000" stroke="param(outline)" fill="param(fill)"/>

<path d="M -0.0001043692 -0.0007773298 L -0.0001050839 -0.0006761235 L -0.0000909597 -0.0006252231 L -0.0000599216 -0.0005888966 L -0.0000050839 -0.0005761235 L 0.0000485506 -0.0005875235 L 0.0000795752 -0.0006215158 L 0.0000949161 -0.0006761235 L 0.0000949161 -0.0007761235 L 0.0001000000 -0.0013000000 L 0.0001000000 -0.0014000000 L 0.0001192529 -0.0014816822 L 0.0001613349 -0.0015820820 L 0.0002378543 -0.0017165536 L 0.0003188749 -0.0018408976 L 0.0003998954 -0.0019669295 L 0.0004674125 -0.0020907109 L 0.0004910435 -0.0021807337 L 0.0005051095 -0.0022707565 L 0.0005107360 -0.0023635925 L 0.0005051095 -0.0024564286 L 0.0004826038 -0.0025211325 L 0.0004432189 -0.0025745835 L 0.0003813282 -0.0025999024 L 0.0003000000 -0.0026000000 L 0.0002437962 -0.0025915825 L 0.0001925136 -0.0025659413 L 0.0001375681 -0.0025146588 L 0.0000862855 -0.0024267459 L 0.0000313400 -0.0023058656 L -0.0000089534 -0.0021446920 L -0.0000492468 -0.0019249097 L -0.0000858772 -0.0015476169 L -0.0001000000 -0.0013000000 L -0.0001043692 -0.0007773298 Z" fill-rule="evenodd" stroke-width="0.0000000000" stroke="param(outline)" fill="param(fill)"/>

</symbol>
</svg>